SplineFontDB: 3.2
FontName: ThaleahFat
FullName: ThaleahFat
FamilyName: ThaleahFat
Weight: Medium
Copyright: RickHoppmann
Version: 001.000
ItalicAngle: 0
UnderlinePosition: -153
UnderlineWidth: 51
Ascent: 768
Descent: 256
InvalidEm: 0
sfntRevision: 0x00010000
LayerCount: 2
Layer: 0 1 "Back" 1
Layer: 1 1 "Fore" 0
XUID: [1021 879 -1556685456 3812]
StyleMap: 0x0040
FSType: 0
OS2Version: 1
OS2_WeightWidthSlopeOnly: 0
OS2_UseTypoMetrics: 0
CreationTime: 1280473793
ModificationTime: 1721706961
PfmFamily: 17
TTFWeight: 500
TTFWidth: 5
LineGap: 92
VLineGap: 0
Panose: 2 0 6 3 0 0 0 0 0 0
OS2TypoAscent: 768
OS2TypoAOffset: 0
OS2TypoDescent: -256
OS2TypoDOffset: 0
OS2TypoLinegap: 92
OS2WinAscent: 682
OS2WinAOffset: 0
OS2WinDescent: 256
OS2WinDOffset: 0
HheadAscent: 682
HheadAOffset: 0
HheadDescent: -256
HheadDOffset: 0
OS2SubXSize: 665
OS2SubYSize: 716
OS2SubXOff: 0
OS2SubYOff: 143
OS2SupXSize: 665
OS2SupYSize: 716
OS2SupXOff: 0
OS2SupYOff: 491
OS2StrikeYSize: 51
OS2StrikeYPos: 265
OS2Vendor: '2ttf'
OS2CodePages: 00000001.00000000
OS2UnicodeRanges: 00000003.00010002.00000000.00000000
MarkAttachClasses: 1
DEI: 91125
ShortTable: cvt  2
  34
  648
EndShort
ShortTable: maxp 16
  1
  0
  109
  58
  6
  0
  0
  2
  0
  1
  1
  0
  64
  46
  0
  0
EndShort
LangName: 1033 "" "" "" "RickHoppmann:ThaleahFat"
GaspTable: 1 65535 0 0
Encoding: UnicodeBmp
UnicodeInterp: none
NameList: AGL For New Fonts
DisplaySize: -48
AntiAlias: 1
FitToEm: 0
WinInfo: 64 16 4
BeginChars: 65539 109

StartChar: .notdef
Encoding: 65536 -1 0
Width: 374
GlyphClass: 1
Flags: W
LayerCount: 2
Fore
SplineSet
34 0 m 1,0,-1
 34 682 l 1,1,-1
 306 682 l 1,2,-1
 306 0 l 1,3,-1
 34 0 l 1,0,-1
68 34 m 1,4,-1
 272 34 l 1,5,-1
 272 648 l 1,6,-1
 68 648 l 1,7,-1
 68 34 l 1,4,-1
EndSplineSet
Validated: 1
EndChar

StartChar: exclam
Encoding: 33 33 4
Width: 192
GlyphClass: 2
Flags: W
LayerCount: 2
Fore
SplineSet
64 0 m 1,0,-1
 0 0 l 1,1,-1
 0 64 l 1,2,-1
 0 128 l 1,3,-1
 64 128 l 1,4,-1
 128 128 l 1,5,-1
 128 64 l 1,6,-1
 128 0 l 1,7,-1
 64 0 l 1,0,-1
64 192 m 1,8,-1
 0 192 l 1,9,-1
 0 256 l 1,10,-1
 0 320 l 1,11,-1
 0 384 l 1,12,-1
 0 448 l 1,13,-1
 64 448 l 1,14,-1
 128 448 l 1,15,-1
 128 384 l 1,16,-1
 128 320 l 1,17,-1
 128 256 l 1,18,-1
 128 192 l 1,19,-1
 64 192 l 1,8,-1
EndSplineSet
Validated: 1
EndChar

StartChar: quotedbl
Encoding: 34 34 5
Width: 384
GlyphClass: 2
Flags: W
LayerCount: 2
Fore
SplineSet
256 256 m 1,0,-1
 192 256 l 1,1,-1
 192 320 l 1,2,-1
 192 384 l 1,3,-1
 192 448 l 1,4,-1
 256 448 l 1,5,-1
 320 448 l 1,6,-1
 320 384 l 1,7,-1
 320 320 l 1,8,-1
 320 256 l 1,9,-1
 256 256 l 1,0,-1
64 256 m 1,10,-1
 0 256 l 1,11,-1
 0 320 l 1,12,-1
 0 384 l 1,13,-1
 0 448 l 1,14,-1
 64 448 l 1,15,-1
 128 448 l 1,16,-1
 128 384 l 1,17,-1
 128 320 l 1,18,-1
 128 256 l 1,19,-1
 64 256 l 1,10,-1
EndSplineSet
Validated: 1
EndChar

StartChar: numbersign
Encoding: 35 35 6
Width: 448
GlyphClass: 2
Flags: W
LayerCount: 2
Fore
SplineSet
256 64 m 1,0,-1
 256 128 l 1,1,-1
 192 128 l 1,2,-1
 128 128 l 1,3,-1
 128 64 l 1,4,-1
 64 64 l 1,5,-1
 64 128 l 1,6,-1
 0 128 l 1,7,-1
 0 192 l 1,8,-1
 64 192 l 1,9,-1
 64 256 l 1,10,-1
 64 320 l 1,11,-1
 0 320 l 1,12,-1
 0 384 l 1,13,-1
 64 384 l 1,14,-1
 64 448 l 1,15,-1
 128 448 l 1,16,-1
 128 384 l 1,17,-1
 192 384 l 1,18,-1
 256 384 l 1,19,-1
 256 448 l 1,20,-1
 320 448 l 1,21,-1
 320 384 l 1,22,-1
 384 384 l 1,23,-1
 384 320 l 1,24,-1
 320 320 l 1,25,-1
 320 256 l 1,26,-1
 320 192 l 1,27,-1
 384 192 l 1,28,-1
 384 128 l 1,29,-1
 320 128 l 1,30,-1
 320 64 l 1,31,-1
 256 64 l 1,0,-1
192 192 m 1,32,-1
 256 192 l 1,33,-1
 256 256 l 1,34,-1
 256 320 l 1,35,-1
 192 320 l 1,36,-1
 128 320 l 1,37,-1
 128 256 l 1,38,-1
 128 192 l 1,39,-1
 192 192 l 1,32,-1
EndSplineSet
Validated: 1
EndChar

StartChar: dollar
Encoding: 36 36 7
Width: 512
GlyphClass: 2
Flags: W
LayerCount: 2
Fore
SplineSet
320 0 m 1,0,-1
 256 0 l 1,1,-1
 192 0 l 1,2,-1
 128 0 l 1,3,-1
 64 0 l 1,4,-1
 64 64 l 1,5,-1
 0 64 l 1,6,-1
 0 128 l 1,7,-1
 64 128 l 1,8,-1
 128 128 l 1,9,-1
 128 64 l 1,10,-1
 192 64 l 1,11,-1
 192 128 l 1,12,-1
 192 192 l 1,13,-1
 128 192 l 1,14,-1
 64 192 l 1,15,-1
 64 256 l 1,16,-1
 0 256 l 1,17,-1
 0 320 l 1,18,-1
 0 384 l 1,19,-1
 64 384 l 1,20,-1
 64 448 l 1,21,-1
 128 448 l 1,22,-1
 192 448 l 1,23,-1
 256 448 l 1,24,-1
 320 448 l 1,25,-1
 384 448 l 1,26,-1
 384 384 l 1,27,-1
 448 384 l 1,28,-1
 448 320 l 1,29,-1
 384 320 l 1,30,-1
 320 320 l 1,31,-1
 320 384 l 1,32,-1
 256 384 l 1,33,-1
 256 320 l 1,34,-1
 256 256 l 1,35,-1
 320 256 l 1,36,-1
 384 256 l 1,37,-1
 384 192 l 1,38,-1
 448 192 l 1,39,-1
 448 128 l 1,40,-1
 448 64 l 1,41,-1
 384 64 l 1,42,-1
 384 0 l 1,43,-1
 320 0 l 1,0,-1
320 128 m 1,44,-1
 320 192 l 1,45,-1
 256 192 l 1,46,-1
 256 128 l 1,47,-1
 320 128 l 1,44,-1
192 256 m 1,48,-1
 192 320 l 1,49,-1
 128 320 l 1,50,-1
 128 256 l 1,51,-1
 192 256 l 1,48,-1
EndSplineSet
Validated: 1
EndChar

StartChar: percent
Encoding: 37 37 8
Width: 512
GlyphClass: 2
Flags: W
LayerCount: 2
Fore
SplineSet
128 0 m 1,0,-1
 128 64 l 1,1,-1
 128 128 l 1,2,-1
 192 128 l 1,3,-1
 192 64 l 1,4,-1
 192 0 l 1,5,-1
 128 0 l 1,0,-1
384 64 m 1,6,-1
 320 64 l 1,7,-1
 320 128 l 1,8,-1
 320 192 l 1,9,-1
 384 192 l 1,10,-1
 448 192 l 1,11,-1
 448 128 l 1,12,-1
 448 64 l 1,13,-1
 384 64 l 1,6,-1
192 128 m 1,14,-1
 192 192 l 1,15,-1
 192 256 l 1,16,-1
 256 256 l 1,17,-1
 256 192 l 1,18,-1
 256 128 l 1,19,-1
 192 128 l 1,14,-1
64 192 m 1,20,-1
 0 192 l 1,21,-1
 0 256 l 1,22,-1
 0 320 l 1,23,-1
 64 320 l 1,24,-1
 128 320 l 1,25,-1
 128 256 l 1,26,-1
 128 192 l 1,27,-1
 64 192 l 1,20,-1
256 256 m 1,28,-1
 256 320 l 1,29,-1
 256 384 l 1,30,-1
 320 384 l 1,31,-1
 320 320 l 1,32,-1
 320 256 l 1,33,-1
 256 256 l 1,28,-1
EndSplineSet
Validated: 5
EndChar

StartChar: ampersand
Encoding: 38 38 9
Width: 384
GlyphClass: 2
Flags: W
LayerCount: 2
Fore
SplineSet
128 64 m 1,0,-1
 128 128 l 1,1,-1
 128 192 l 1,2,-1
 64 192 l 1,3,-1
 0 192 l 1,4,-1
 0 256 l 1,5,-1
 64 256 l 1,6,-1
 128 256 l 1,7,-1
 128 320 l 1,8,-1
 128 384 l 1,9,-1
 192 384 l 1,10,-1
 192 320 l 1,11,-1
 192 256 l 1,12,-1
 256 256 l 1,13,-1
 320 256 l 1,14,-1
 320 192 l 1,15,-1
 256 192 l 1,16,-1
 192 192 l 1,17,-1
 192 128 l 1,18,-1
 192 64 l 1,19,-1
 128 64 l 1,0,-1
EndSplineSet
Validated: 1
EndChar

StartChar: quotesingle
Encoding: 39 39 10
Width: 128
GlyphClass: 2
Flags: W
LayerCount: 2
Fore
SplineSet
0 320 m 1,0,-1
 0 384 l 1,1,-1
 0 448 l 1,2,-1
 64 448 l 1,3,-1
 64 384 l 1,4,-1
 64 320 l 1,5,-1
 0 320 l 1,0,-1
EndSplineSet
Validated: 1
EndChar

StartChar: parenleft
Encoding: 40 40 11
Width: 320
GlyphClass: 2
Flags: W
LayerCount: 2
Fore
SplineSet
192 64 m 1,0,-1
 256 64 l 1,1,-1
 256 0 l 1,2,-1
 192 0 l 1,3,-1
 128 0 l 1,4,-1
 64 0 l 1,5,-1
 64 64 l 1,6,-1
 0 64 l 1,7,-1
 0 128 l 1,8,-1
 0 192 l 1,9,-1
 0 256 l 1,10,-1
 0 320 l 1,11,-1
 0 384 l 1,12,-1
 64 384 l 1,13,-1
 64 448 l 1,14,-1
 128 448 l 1,15,-1
 192 448 l 1,16,-1
 256 448 l 1,17,-1
 256 384 l 1,18,-1
 192 384 l 1,19,-1
 128 384 l 1,20,-1
 128 320 l 1,21,-1
 128 256 l 1,22,-1
 128 192 l 1,23,-1
 128 128 l 1,24,-1
 128 64 l 1,25,-1
 192 64 l 1,0,-1
EndSplineSet
Validated: 1
EndChar

StartChar: parenright
Encoding: 41 41 12
Width: 320
GlyphClass: 2
Flags: W
LayerCount: 2
Fore
SplineSet
128 0 m 1,0,-1
 64 0 l 1,1,-1
 0 0 l 1,2,-1
 0 64 l 1,3,-1
 64 64 l 1,4,-1
 128 64 l 1,5,-1
 128 128 l 1,6,-1
 128 192 l 1,7,-1
 128 256 l 1,8,-1
 128 320 l 1,9,-1
 128 384 l 1,10,-1
 64 384 l 1,11,-1
 0 384 l 1,12,-1
 0 448 l 1,13,-1
 64 448 l 1,14,-1
 128 448 l 1,15,-1
 192 448 l 1,16,-1
 192 384 l 1,17,-1
 256 384 l 1,18,-1
 256 320 l 1,19,-1
 256 256 l 1,20,-1
 256 192 l 1,21,-1
 256 128 l 1,22,-1
 256 64 l 1,23,-1
 192 64 l 1,24,-1
 192 0 l 1,25,-1
 128 0 l 1,0,-1
EndSplineSet
Validated: 1
EndChar

StartChar: asterisk
Encoding: 42 42 13
Width: 256
GlyphClass: 2
Flags: W
LayerCount: 2
Fore
SplineSet
64 256 m 1,0,-1
 64 320 l 1,1,-1
 0 320 l 1,2,-1
 0 384 l 1,3,-1
 64 384 l 1,4,-1
 64 448 l 1,5,-1
 128 448 l 1,6,-1
 128 384 l 1,7,-1
 192 384 l 1,8,-1
 192 320 l 1,9,-1
 128 320 l 1,10,-1
 128 256 l 1,11,-1
 64 256 l 1,0,-1
EndSplineSet
Validated: 1
EndChar

StartChar: plus
Encoding: 43 43 14
Width: 384
GlyphClass: 2
Flags: W
LayerCount: 2
Fore
SplineSet
128 64 m 1,0,-1
 128 128 l 1,1,-1
 128 192 l 1,2,-1
 64 192 l 1,3,-1
 0 192 l 1,4,-1
 0 256 l 1,5,-1
 64 256 l 1,6,-1
 128 256 l 1,7,-1
 128 320 l 1,8,-1
 128 384 l 1,9,-1
 192 384 l 1,10,-1
 192 320 l 1,11,-1
 192 256 l 1,12,-1
 256 256 l 1,13,-1
 320 256 l 1,14,-1
 320 192 l 1,15,-1
 256 192 l 1,16,-1
 192 192 l 1,17,-1
 192 128 l 1,18,-1
 192 64 l 1,19,-1
 128 64 l 1,0,-1
EndSplineSet
Validated: 1
EndChar

StartChar: comma
Encoding: 44 44 15
Width: 192
GlyphClass: 2
Flags: W
LayerCount: 2
Fore
SplineSet
64 -128 m 1,0,-1
 0 -128 l 1,1,-1
 0 -64 l 1,2,-1
 0 0 l 1,3,-1
 0 64 l 1,4,-1
 64 64 l 1,5,-1
 128 64 l 1,6,-1
 128 0 l 1,7,-1
 128 -64 l 1,8,-1
 128 -128 l 1,9,-1
 64 -128 l 1,0,-1
EndSplineSet
Validated: 1
EndChar

StartChar: hyphen
Encoding: 45 45 16
Width: 320
GlyphClass: 2
Flags: W
LayerCount: 2
Fore
SplineSet
192 128 m 1,0,-1
 128 128 l 1,1,-1
 64 128 l 1,2,-1
 0 128 l 1,3,-1
 0 192 l 1,4,-1
 0 256 l 1,5,-1
 64 256 l 1,6,-1
 128 256 l 1,7,-1
 192 256 l 1,8,-1
 256 256 l 1,9,-1
 256 192 l 1,10,-1
 256 128 l 1,11,-1
 192 128 l 1,0,-1
EndSplineSet
Validated: 1
EndChar

StartChar: period
Encoding: 46 46 17
Width: 192
GlyphClass: 2
Flags: W
LayerCount: 2
Fore
SplineSet
64 0 m 1,0,-1
 0 0 l 1,1,-1
 0 64 l 1,2,-1
 0 128 l 1,3,-1
 64 128 l 1,4,-1
 128 128 l 1,5,-1
 128 64 l 1,6,-1
 128 0 l 1,7,-1
 64 0 l 1,0,-1
EndSplineSet
Validated: 1
EndChar

StartChar: slash
Encoding: 47 47 18
Width: 256
GlyphClass: 2
Flags: W
LayerCount: 2
Fore
SplineSet
0 0 m 1,0,-1
 0 64 l 1,1,-1
 0 128 l 1,2,-1
 64 128 l 1,3,-1
 64 64 l 1,4,-1
 64 0 l 1,5,-1
 0 0 l 1,0,-1
64 128 m 1,6,-1
 64 192 l 1,7,-1
 64 256 l 1,8,-1
 128 256 l 1,9,-1
 128 192 l 1,10,-1
 128 128 l 1,11,-1
 64 128 l 1,6,-1
128 256 m 1,12,-1
 128 320 l 1,13,-1
 128 384 l 1,14,-1
 192 384 l 1,15,-1
 192 320 l 1,16,-1
 192 256 l 1,17,-1
 128 256 l 1,12,-1
EndSplineSet
Validated: 5
EndChar

StartChar: zero
Encoding: 48 48 19
Width: 512
GlyphClass: 2
Flags: W
LayerCount: 2
Fore
SplineSet
192 192 m 1,0,-1
 192 256 l 1,1,-1
 256 256 l 1,2,-1
 256 192 l 1,3,-1
 192 192 l 1,0,-1
320 0 m 1,4,-1
 256 0 l 1,5,-1
 192 0 l 1,6,-1
 128 0 l 1,7,-1
 64 0 l 1,8,-1
 64 64 l 1,9,-1
 0 64 l 1,10,-1
 0 128 l 1,11,-1
 0 192 l 1,12,-1
 0 256 l 1,13,-1
 0 320 l 1,14,-1
 0 384 l 1,15,-1
 64 384 l 1,16,-1
 64 448 l 1,17,-1
 128 448 l 1,18,-1
 192 448 l 1,19,-1
 256 448 l 1,20,-1
 320 448 l 1,21,-1
 384 448 l 1,22,-1
 384 384 l 1,23,-1
 448 384 l 1,24,-1
 448 320 l 1,25,-1
 448 256 l 1,26,-1
 448 192 l 1,27,-1
 448 128 l 1,28,-1
 448 64 l 1,29,-1
 384 64 l 1,30,-1
 384 0 l 1,31,-1
 320 0 l 1,4,-1
256 128 m 1,32,-1
 320 128 l 1,33,-1
 320 192 l 1,34,-1
 320 256 l 1,35,-1
 320 320 l 1,36,-1
 256 320 l 1,37,-1
 192 320 l 1,38,-1
 128 320 l 1,39,-1
 128 256 l 1,40,-1
 128 192 l 1,41,-1
 128 128 l 1,42,-1
 192 128 l 1,43,-1
 256 128 l 1,32,-1
EndSplineSet
Validated: 1
EndChar

StartChar: one
Encoding: 49 49 20
Width: 320
GlyphClass: 2
Flags: W
LayerCount: 2
Fore
SplineSet
192 0 m 1,0,-1
 128 0 l 1,1,-1
 128 64 l 1,2,-1
 128 128 l 1,3,-1
 128 192 l 1,4,-1
 128 256 l 1,5,-1
 64 256 l 1,6,-1
 0 256 l 1,7,-1
 0 320 l 1,8,-1
 0 384 l 1,9,-1
 64 384 l 1,10,-1
 128 384 l 1,11,-1
 128 448 l 1,12,-1
 192 448 l 1,13,-1
 256 448 l 1,14,-1
 256 384 l 1,15,-1
 256 320 l 1,16,-1
 256 256 l 1,17,-1
 256 192 l 1,18,-1
 256 128 l 1,19,-1
 256 64 l 1,20,-1
 256 0 l 1,21,-1
 192 0 l 1,0,-1
EndSplineSet
Validated: 1
EndChar

StartChar: two
Encoding: 50 50 21
Width: 512
GlyphClass: 2
Flags: W
LayerCount: 2
Fore
SplineSet
384 0 m 1,0,-1
 320 0 l 1,1,-1
 256 0 l 1,2,-1
 192 0 l 1,3,-1
 128 0 l 1,4,-1
 64 0 l 1,5,-1
 0 0 l 1,6,-1
 0 64 l 1,7,-1
 0 128 l 1,8,-1
 64 128 l 1,9,-1
 128 128 l 1,10,-1
 128 192 l 1,11,-1
 192 192 l 1,12,-1
 192 256 l 1,13,-1
 256 256 l 1,14,-1
 320 256 l 1,15,-1
 320 320 l 1,16,-1
 256 320 l 1,17,-1
 192 320 l 1,18,-1
 128 320 l 1,19,-1
 128 256 l 1,20,-1
 64 256 l 1,21,-1
 0 256 l 1,22,-1
 0 320 l 1,23,-1
 0 384 l 1,24,-1
 64 384 l 1,25,-1
 64 448 l 1,26,-1
 128 448 l 1,27,-1
 192 448 l 1,28,-1
 256 448 l 1,29,-1
 320 448 l 1,30,-1
 384 448 l 1,31,-1
 384 384 l 1,32,-1
 448 384 l 1,33,-1
 448 320 l 1,34,-1
 448 256 l 1,35,-1
 448 192 l 1,36,-1
 384 192 l 1,37,-1
 320 192 l 1,38,-1
 320 128 l 1,39,-1
 384 128 l 1,40,-1
 448 128 l 1,41,-1
 448 64 l 1,42,-1
 448 0 l 1,43,-1
 384 0 l 1,0,-1
EndSplineSet
Validated: 1
EndChar

StartChar: three
Encoding: 51 51 22
Width: 512
GlyphClass: 2
Flags: W
LayerCount: 2
Fore
SplineSet
384 0 m 1,0,-1
 320 0 l 1,1,-1
 256 0 l 1,2,-1
 192 0 l 1,3,-1
 128 0 l 1,4,-1
 64 0 l 1,5,-1
 0 0 l 1,6,-1
 0 64 l 1,7,-1
 0 128 l 1,8,-1
 64 128 l 1,9,-1
 128 128 l 1,10,-1
 192 128 l 1,11,-1
 256 128 l 1,12,-1
 320 128 l 1,13,-1
 320 192 l 1,14,-1
 256 192 l 1,15,-1
 192 192 l 1,16,-1
 128 192 l 1,17,-1
 128 256 l 1,18,-1
 192 256 l 1,19,-1
 256 256 l 1,20,-1
 320 256 l 1,21,-1
 320 320 l 1,22,-1
 256 320 l 1,23,-1
 192 320 l 1,24,-1
 128 320 l 1,25,-1
 64 320 l 1,26,-1
 0 320 l 1,27,-1
 0 384 l 1,28,-1
 0 448 l 1,29,-1
 64 448 l 1,30,-1
 128 448 l 1,31,-1
 192 448 l 1,32,-1
 256 448 l 1,33,-1
 320 448 l 1,34,-1
 384 448 l 1,35,-1
 448 448 l 1,36,-1
 448 384 l 1,37,-1
 448 320 l 1,38,-1
 448 256 l 1,39,-1
 448 192 l 1,40,-1
 448 128 l 1,41,-1
 448 64 l 1,42,-1
 448 0 l 1,43,-1
 384 0 l 1,0,-1
EndSplineSet
Validated: 1
EndChar

StartChar: four
Encoding: 52 52 23
Width: 512
GlyphClass: 2
Flags: W
LayerCount: 2
Fore
SplineSet
256 0 m 1,0,-1
 192 0 l 1,1,-1
 192 64 l 1,2,-1
 192 128 l 1,3,-1
 128 128 l 1,4,-1
 64 128 l 1,5,-1
 0 128 l 1,6,-1
 0 192 l 1,7,-1
 0 256 l 1,8,-1
 0 320 l 1,9,-1
 0 384 l 1,10,-1
 0 448 l 1,11,-1
 64 448 l 1,12,-1
 128 448 l 1,13,-1
 128 384 l 1,14,-1
 128 320 l 1,15,-1
 128 256 l 1,16,-1
 192 256 l 1,17,-1
 192 320 l 1,18,-1
 192 384 l 1,19,-1
 256 384 l 1,20,-1
 320 384 l 1,21,-1
 320 320 l 1,22,-1
 320 256 l 1,23,-1
 384 256 l 1,24,-1
 448 256 l 1,25,-1
 448 192 l 1,26,-1
 448 128 l 1,27,-1
 384 128 l 1,28,-1
 320 128 l 1,29,-1
 320 64 l 1,30,-1
 320 0 l 1,31,-1
 256 0 l 1,0,-1
EndSplineSet
Validated: 1
EndChar

StartChar: five
Encoding: 53 53 24
Width: 512
GlyphClass: 2
Flags: W
LayerCount: 2
Fore
SplineSet
384 0 m 1,0,-1
 320 0 l 1,1,-1
 256 0 l 1,2,-1
 192 0 l 1,3,-1
 128 0 l 1,4,-1
 64 0 l 1,5,-1
 0 0 l 1,6,-1
 0 64 l 1,7,-1
 0 128 l 1,8,-1
 64 128 l 1,9,-1
 128 128 l 1,10,-1
 192 128 l 1,11,-1
 256 128 l 1,12,-1
 320 128 l 1,13,-1
 320 192 l 1,14,-1
 256 192 l 1,15,-1
 192 192 l 1,16,-1
 128 192 l 1,17,-1
 64 192 l 1,18,-1
 0 192 l 1,19,-1
 0 256 l 1,20,-1
 0 320 l 1,21,-1
 0 384 l 1,22,-1
 0 448 l 1,23,-1
 64 448 l 1,24,-1
 128 448 l 1,25,-1
 192 448 l 1,26,-1
 256 448 l 1,27,-1
 320 448 l 1,28,-1
 384 448 l 1,29,-1
 448 448 l 1,30,-1
 448 384 l 1,31,-1
 448 320 l 1,32,-1
 384 320 l 1,33,-1
 320 320 l 1,34,-1
 256 320 l 1,35,-1
 192 320 l 1,36,-1
 128 320 l 1,37,-1
 128 256 l 1,38,-1
 192 256 l 1,39,-1
 256 256 l 1,40,-1
 320 256 l 1,41,-1
 384 256 l 1,42,-1
 448 256 l 1,43,-1
 448 192 l 1,44,-1
 448 128 l 1,45,-1
 448 64 l 1,46,-1
 448 0 l 1,47,-1
 384 0 l 1,0,-1
EndSplineSet
Validated: 1
EndChar

StartChar: six
Encoding: 54 54 25
Width: 512
GlyphClass: 2
Flags: W
LayerCount: 2
Fore
SplineSet
384 0 m 1,0,-1
 320 0 l 1,1,-1
 256 0 l 1,2,-1
 192 0 l 1,3,-1
 128 0 l 1,4,-1
 64 0 l 1,5,-1
 0 0 l 1,6,-1
 0 64 l 1,7,-1
 0 128 l 1,8,-1
 0 192 l 1,9,-1
 0 256 l 1,10,-1
 0 320 l 1,11,-1
 0 384 l 1,12,-1
 0 448 l 1,13,-1
 64 448 l 1,14,-1
 128 448 l 1,15,-1
 192 448 l 1,16,-1
 256 448 l 1,17,-1
 320 448 l 1,18,-1
 384 448 l 1,19,-1
 448 448 l 1,20,-1
 448 384 l 1,21,-1
 448 320 l 1,22,-1
 384 320 l 1,23,-1
 320 320 l 1,24,-1
 256 320 l 1,25,-1
 192 320 l 1,26,-1
 128 320 l 1,27,-1
 128 256 l 1,28,-1
 192 256 l 1,29,-1
 256 256 l 1,30,-1
 320 256 l 1,31,-1
 384 256 l 1,32,-1
 448 256 l 1,33,-1
 448 192 l 1,34,-1
 448 128 l 1,35,-1
 448 64 l 1,36,-1
 448 0 l 1,37,-1
 384 0 l 1,0,-1
256 128 m 1,38,-1
 320 128 l 1,39,-1
 320 192 l 1,40,-1
 256 192 l 1,41,-1
 192 192 l 1,42,-1
 128 192 l 1,43,-1
 128 128 l 1,44,-1
 192 128 l 1,45,-1
 256 128 l 1,38,-1
EndSplineSet
Validated: 1
EndChar

StartChar: seven
Encoding: 55 55 26
Width: 512
GlyphClass: 2
Flags: W
LayerCount: 2
Fore
SplineSet
320 0 m 1,0,-1
 256 0 l 1,1,-1
 256 64 l 1,2,-1
 256 128 l 1,3,-1
 256 192 l 1,4,-1
 320 192 l 1,5,-1
 320 256 l 1,6,-1
 320 320 l 1,7,-1
 256 320 l 1,8,-1
 192 320 l 1,9,-1
 128 320 l 1,10,-1
 64 320 l 1,11,-1
 0 320 l 1,12,-1
 0 384 l 1,13,-1
 0 448 l 1,14,-1
 64 448 l 1,15,-1
 128 448 l 1,16,-1
 192 448 l 1,17,-1
 256 448 l 1,18,-1
 320 448 l 1,19,-1
 384 448 l 1,20,-1
 448 448 l 1,21,-1
 448 384 l 1,22,-1
 448 320 l 1,23,-1
 448 256 l 1,24,-1
 448 192 l 1,25,-1
 384 192 l 1,26,-1
 384 128 l 1,27,-1
 384 64 l 1,28,-1
 384 0 l 1,29,-1
 320 0 l 1,0,-1
EndSplineSet
Validated: 1
EndChar

StartChar: eight
Encoding: 56 56 27
Width: 512
GlyphClass: 2
Flags: W
LayerCount: 2
Fore
SplineSet
320 0 m 1,0,-1
 256 0 l 1,1,-1
 192 0 l 1,2,-1
 128 0 l 1,3,-1
 64 0 l 1,4,-1
 64 64 l 1,5,-1
 0 64 l 1,6,-1
 0 128 l 1,7,-1
 0 192 l 1,8,-1
 64 192 l 1,9,-1
 64 256 l 1,10,-1
 0 256 l 1,11,-1
 0 320 l 1,12,-1
 0 384 l 1,13,-1
 64 384 l 1,14,-1
 64 448 l 1,15,-1
 128 448 l 1,16,-1
 192 448 l 1,17,-1
 256 448 l 1,18,-1
 320 448 l 1,19,-1
 384 448 l 1,20,-1
 384 384 l 1,21,-1
 448 384 l 1,22,-1
 448 320 l 1,23,-1
 448 256 l 1,24,-1
 384 256 l 1,25,-1
 384 192 l 1,26,-1
 448 192 l 1,27,-1
 448 128 l 1,28,-1
 448 64 l 1,29,-1
 384 64 l 1,30,-1
 384 0 l 1,31,-1
 320 0 l 1,0,-1
256 128 m 1,32,-1
 320 128 l 1,33,-1
 320 192 l 1,34,-1
 256 192 l 1,35,-1
 192 192 l 1,36,-1
 128 192 l 1,37,-1
 128 128 l 1,38,-1
 192 128 l 1,39,-1
 256 128 l 1,32,-1
256 256 m 1,40,-1
 320 256 l 1,41,-1
 320 320 l 1,42,-1
 256 320 l 1,43,-1
 192 320 l 1,44,-1
 128 320 l 1,45,-1
 128 256 l 1,46,-1
 192 256 l 1,47,-1
 256 256 l 1,40,-1
EndSplineSet
Validated: 1
EndChar

StartChar: nine
Encoding: 57 57 28
Width: 512
GlyphClass: 2
Flags: W
LayerCount: 2
Fore
SplineSet
384 0 m 1,0,-1
 320 0 l 1,1,-1
 256 0 l 1,2,-1
 192 0 l 1,3,-1
 128 0 l 1,4,-1
 64 0 l 1,5,-1
 0 0 l 1,6,-1
 0 64 l 1,7,-1
 0 128 l 1,8,-1
 64 128 l 1,9,-1
 128 128 l 1,10,-1
 192 128 l 1,11,-1
 256 128 l 1,12,-1
 320 128 l 1,13,-1
 320 192 l 1,14,-1
 256 192 l 1,15,-1
 192 192 l 1,16,-1
 128 192 l 1,17,-1
 64 192 l 1,18,-1
 0 192 l 1,19,-1
 0 256 l 1,20,-1
 0 320 l 1,21,-1
 0 384 l 1,22,-1
 0 448 l 1,23,-1
 64 448 l 1,24,-1
 128 448 l 1,25,-1
 192 448 l 1,26,-1
 256 448 l 1,27,-1
 320 448 l 1,28,-1
 384 448 l 1,29,-1
 448 448 l 1,30,-1
 448 384 l 1,31,-1
 448 320 l 1,32,-1
 448 256 l 1,33,-1
 448 192 l 1,34,-1
 448 128 l 1,35,-1
 448 64 l 1,36,-1
 448 0 l 1,37,-1
 384 0 l 1,0,-1
256 256 m 1,38,-1
 320 256 l 1,39,-1
 320 320 l 1,40,-1
 256 320 l 1,41,-1
 192 320 l 1,42,-1
 128 320 l 1,43,-1
 128 256 l 1,44,-1
 192 256 l 1,45,-1
 256 256 l 1,38,-1
EndSplineSet
Validated: 1
EndChar

StartChar: colon
Encoding: 58 58 29
Width: 256
GlyphClass: 2
Flags: W
LayerCount: 2
Fore
SplineSet
128 64 m 1,0,-1
 64 64 l 1,1,-1
 64 128 l 1,2,-1
 64 192 l 1,3,-1
 128 192 l 1,4,-1
 192 192 l 1,5,-1
 192 128 l 1,6,-1
 192 64 l 1,7,-1
 128 64 l 1,0,-1
128 256 m 1,8,-1
 64 256 l 1,9,-1
 64 320 l 1,10,-1
 64 384 l 1,11,-1
 128 384 l 1,12,-1
 192 384 l 1,13,-1
 192 320 l 1,14,-1
 192 256 l 1,15,-1
 128 256 l 1,8,-1
EndSplineSet
Validated: 1
EndChar

StartChar: semicolon
Encoding: 59 59 30
Width: 192
GlyphClass: 2
Flags: W
LayerCount: 2
Fore
SplineSet
64 -128 m 1,0,-1
 0 -128 l 1,1,-1
 0 -64 l 1,2,-1
 0 0 l 1,3,-1
 0 64 l 1,4,-1
 64 64 l 1,5,-1
 128 64 l 1,6,-1
 128 0 l 1,7,-1
 128 -64 l 1,8,-1
 128 -128 l 1,9,-1
 64 -128 l 1,0,-1
64 128 m 1,10,-1
 0 128 l 1,11,-1
 0 192 l 1,12,-1
 0 256 l 1,13,-1
 64 256 l 1,14,-1
 128 256 l 1,15,-1
 128 192 l 1,16,-1
 128 128 l 1,17,-1
 64 128 l 1,10,-1
EndSplineSet
Validated: 1
EndChar

StartChar: less
Encoding: 60 60 31
Width: 256
GlyphClass: 2
Flags: W
LayerCount: 2
Fore
SplineSet
128 64 m 1,0,-1
 128 128 l 1,1,-1
 192 128 l 1,2,-1
 192 64 l 1,3,-1
 128 64 l 1,0,-1
128 128 m 1,4,-1
 64 128 l 1,5,-1
 64 192 l 1,6,-1
 128 192 l 1,7,-1
 128 128 l 1,4,-1
64 192 m 1,8,-1
 0 192 l 1,9,-1
 0 256 l 1,10,-1
 64 256 l 1,11,-1
 64 192 l 1,8,-1
64 256 m 1,12,-1
 64 320 l 1,13,-1
 128 320 l 1,14,-1
 128 256 l 1,15,-1
 64 256 l 1,12,-1
128 320 m 1,16,-1
 128 384 l 1,17,-1
 192 384 l 1,18,-1
 192 320 l 1,19,-1
 128 320 l 1,16,-1
EndSplineSet
Validated: 5
EndChar

StartChar: equal
Encoding: 61 61 32
Width: 512
GlyphClass: 2
Flags: W
LayerCount: 2
Fore
SplineSet
384 64 m 1,0,-1
 320 64 l 1,1,-1
 256 64 l 1,2,-1
 192 64 l 1,3,-1
 128 64 l 1,4,-1
 64 64 l 1,5,-1
 0 64 l 1,6,-1
 0 128 l 1,7,-1
 0 192 l 1,8,-1
 64 192 l 1,9,-1
 128 192 l 1,10,-1
 192 192 l 1,11,-1
 256 192 l 1,12,-1
 320 192 l 1,13,-1
 384 192 l 1,14,-1
 448 192 l 1,15,-1
 448 128 l 1,16,-1
 448 64 l 1,17,-1
 384 64 l 1,0,-1
384 256 m 1,18,-1
 320 256 l 1,19,-1
 256 256 l 1,20,-1
 192 256 l 1,21,-1
 128 256 l 1,22,-1
 64 256 l 1,23,-1
 0 256 l 1,24,-1
 0 320 l 1,25,-1
 0 384 l 1,26,-1
 64 384 l 1,27,-1
 128 384 l 1,28,-1
 192 384 l 1,29,-1
 256 384 l 1,30,-1
 320 384 l 1,31,-1
 384 384 l 1,32,-1
 448 384 l 1,33,-1
 448 320 l 1,34,-1
 448 256 l 1,35,-1
 384 256 l 1,18,-1
EndSplineSet
Validated: 1
EndChar

StartChar: greater
Encoding: 62 62 33
Width: 256
GlyphClass: 2
Flags: W
LayerCount: 2
Fore
SplineSet
0 0 m 1,0,-1
 0 64 l 1,1,-1
 64 64 l 1,2,-1
 64 0 l 1,3,-1
 0 0 l 1,0,-1
64 64 m 1,4,-1
 64 128 l 1,5,-1
 128 128 l 1,6,-1
 128 64 l 1,7,-1
 64 64 l 1,4,-1
128 128 m 1,8,-1
 128 192 l 1,9,-1
 192 192 l 1,10,-1
 192 128 l 1,11,-1
 128 128 l 1,8,-1
128 192 m 1,12,-1
 64 192 l 1,13,-1
 64 256 l 1,14,-1
 128 256 l 1,15,-1
 128 192 l 1,12,-1
64 256 m 1,16,-1
 0 256 l 1,17,-1
 0 320 l 1,18,-1
 64 320 l 1,19,-1
 64 256 l 1,16,-1
EndSplineSet
Validated: 5
EndChar

StartChar: question
Encoding: 63 63 34
Width: 448
GlyphClass: 2
Flags: W
LayerCount: 2
Fore
SplineSet
192 64 m 1,0,-1
 256 64 l 1,1,-1
 256 0 l 1,2,-1
 192 0 l 1,3,-1
 128 0 l 1,4,-1
 128 64 l 1,5,-1
 192 64 l 1,0,-1
192 192 m 1,6,-1
 256 192 l 1,7,-1
 256 128 l 1,8,-1
 192 128 l 1,9,-1
 128 128 l 1,10,-1
 128 192 l 1,11,-1
 192 192 l 1,6,-1
256 192 m 1,12,-1
 256 256 l 1,13,-1
 256 320 l 1,14,-1
 256 384 l 1,15,-1
 320 384 l 1,16,-1
 384 384 l 1,17,-1
 384 320 l 1,18,-1
 384 256 l 1,19,-1
 384 192 l 1,20,-1
 320 192 l 1,21,-1
 256 192 l 1,12,-1
64 256 m 1,22,-1
 0 256 l 1,23,-1
 0 320 l 1,24,-1
 0 384 l 1,25,-1
 64 384 l 1,26,-1
 128 384 l 1,27,-1
 128 320 l 1,28,-1
 128 256 l 1,29,-1
 64 256 l 1,22,-1
256 384 m 1,30,-1
 192 384 l 1,31,-1
 128 384 l 1,32,-1
 128 448 l 1,33,-1
 192 448 l 1,34,-1
 256 448 l 1,35,-1
 256 384 l 1,30,-1
EndSplineSet
Validated: 5
EndChar

StartChar: at
Encoding: 64 64 35
Width: 512
GlyphClass: 2
Flags: W
LayerCount: 2
Fore
SplineSet
384 64 m 1,0,-1
 448 64 l 1,1,-1
 448 0 l 1,2,-1
 384 0 l 1,3,-1
 320 0 l 1,4,-1
 256 0 l 1,5,-1
 192 0 l 1,6,-1
 128 0 l 1,7,-1
 64 0 l 1,8,-1
 64 64 l 1,9,-1
 0 64 l 1,10,-1
 0 128 l 1,11,-1
 0 192 l 1,12,-1
 0 256 l 1,13,-1
 0 320 l 1,14,-1
 0 384 l 1,15,-1
 64 384 l 1,16,-1
 64 448 l 1,17,-1
 128 448 l 1,18,-1
 192 448 l 1,19,-1
 256 448 l 1,20,-1
 320 448 l 1,21,-1
 384 448 l 1,22,-1
 384 384 l 1,23,-1
 448 384 l 1,24,-1
 448 320 l 1,25,-1
 448 256 l 1,26,-1
 448 192 l 1,27,-1
 448 128 l 1,28,-1
 384 128 l 1,29,-1
 320 128 l 1,30,-1
 256 128 l 1,31,-1
 192 128 l 1,32,-1
 192 192 l 1,33,-1
 192 256 l 1,34,-1
 192 320 l 1,35,-1
 256 320 l 1,36,-1
 320 320 l 1,37,-1
 320 256 l 1,38,-1
 256 256 l 1,39,-1
 256 192 l 1,40,-1
 320 192 l 1,41,-1
 384 192 l 1,42,-1
 384 256 l 1,43,-1
 384 320 l 1,44,-1
 384 384 l 1,45,-1
 320 384 l 1,46,-1
 256 384 l 1,47,-1
 192 384 l 1,48,-1
 128 384 l 1,49,-1
 128 320 l 1,50,-1
 128 256 l 1,51,-1
 128 192 l 1,52,-1
 128 128 l 1,53,-1
 128 64 l 1,54,-1
 192 64 l 1,55,-1
 256 64 l 1,56,-1
 320 64 l 1,57,-1
 384 64 l 1,0,-1
EndSplineSet
Validated: 5
EndChar

StartChar: A
Encoding: 65 65 36
Width: 512
GlyphClass: 2
Flags: W
LayerCount: 2
Fore
SplineSet
384 0 m 1,0,-1
 320 0 l 1,1,-1
 320 64 l 1,2,-1
 320 128 l 1,3,-1
 256 128 l 1,4,-1
 192 128 l 1,5,-1
 128 128 l 1,6,-1
 128 64 l 1,7,-1
 128 0 l 1,8,-1
 64 0 l 1,9,-1
 0 0 l 1,10,-1
 0 64 l 1,11,-1
 0 128 l 1,12,-1
 0 192 l 1,13,-1
 0 256 l 1,14,-1
 0 320 l 1,15,-1
 0 384 l 1,16,-1
 64 384 l 1,17,-1
 64 448 l 1,18,-1
 128 448 l 1,19,-1
 192 448 l 1,20,-1
 256 448 l 1,21,-1
 320 448 l 1,22,-1
 384 448 l 1,23,-1
 384 384 l 1,24,-1
 448 384 l 1,25,-1
 448 320 l 1,26,-1
 448 256 l 1,27,-1
 448 192 l 1,28,-1
 448 128 l 1,29,-1
 448 64 l 1,30,-1
 448 0 l 1,31,-1
 384 0 l 1,0,-1
256 256 m 1,32,-1
 320 256 l 1,33,-1
 320 320 l 1,34,-1
 256 320 l 1,35,-1
 192 320 l 1,36,-1
 128 320 l 1,37,-1
 128 256 l 1,38,-1
 192 256 l 1,39,-1
 256 256 l 1,32,-1
EndSplineSet
Validated: 1
EndChar

StartChar: B
Encoding: 66 66 37
Width: 512
GlyphClass: 2
Flags: W
LayerCount: 2
Fore
SplineSet
320 0 m 1,0,-1
 256 0 l 1,1,-1
 192 0 l 1,2,-1
 128 0 l 1,3,-1
 64 0 l 1,4,-1
 0 0 l 1,5,-1
 0 64 l 1,6,-1
 0 128 l 1,7,-1
 0 192 l 1,8,-1
 0 256 l 1,9,-1
 0 320 l 1,10,-1
 0 384 l 1,11,-1
 0 448 l 1,12,-1
 64 448 l 1,13,-1
 128 448 l 1,14,-1
 192 448 l 1,15,-1
 256 448 l 1,16,-1
 320 448 l 1,17,-1
 384 448 l 1,18,-1
 384 384 l 1,19,-1
 448 384 l 1,20,-1
 448 320 l 1,21,-1
 448 256 l 1,22,-1
 384 256 l 1,23,-1
 384 192 l 1,24,-1
 448 192 l 1,25,-1
 448 128 l 1,26,-1
 448 64 l 1,27,-1
 384 64 l 1,28,-1
 384 0 l 1,29,-1
 320 0 l 1,0,-1
256 128 m 1,30,-1
 320 128 l 1,31,-1
 320 192 l 1,32,-1
 256 192 l 1,33,-1
 192 192 l 1,34,-1
 128 192 l 1,35,-1
 128 128 l 1,36,-1
 192 128 l 1,37,-1
 256 128 l 1,30,-1
256 256 m 1,38,-1
 320 256 l 1,39,-1
 320 320 l 1,40,-1
 256 320 l 1,41,-1
 192 320 l 1,42,-1
 128 320 l 1,43,-1
 128 256 l 1,44,-1
 192 256 l 1,45,-1
 256 256 l 1,38,-1
EndSplineSet
Validated: 1
EndChar

StartChar: C
Encoding: 67 67 38
Width: 512
GlyphClass: 2
Flags: W
LayerCount: 2
Fore
SplineSet
384 0 m 1,0,-1
 320 0 l 1,1,-1
 256 0 l 1,2,-1
 192 0 l 1,3,-1
 128 0 l 1,4,-1
 64 0 l 1,5,-1
 64 64 l 1,6,-1
 0 64 l 1,7,-1
 0 128 l 1,8,-1
 0 192 l 1,9,-1
 0 256 l 1,10,-1
 0 320 l 1,11,-1
 0 384 l 1,12,-1
 64 384 l 1,13,-1
 64 448 l 1,14,-1
 128 448 l 1,15,-1
 192 448 l 1,16,-1
 256 448 l 1,17,-1
 320 448 l 1,18,-1
 384 448 l 1,19,-1
 448 448 l 1,20,-1
 448 384 l 1,21,-1
 448 320 l 1,22,-1
 384 320 l 1,23,-1
 320 320 l 1,24,-1
 256 320 l 1,25,-1
 192 320 l 1,26,-1
 128 320 l 1,27,-1
 128 256 l 1,28,-1
 128 192 l 1,29,-1
 128 128 l 1,30,-1
 192 128 l 1,31,-1
 256 128 l 1,32,-1
 320 128 l 1,33,-1
 384 128 l 1,34,-1
 448 128 l 1,35,-1
 448 64 l 1,36,-1
 448 0 l 1,37,-1
 384 0 l 1,0,-1
EndSplineSet
Validated: 1
EndChar

StartChar: D
Encoding: 68 68 39
Width: 512
GlyphClass: 2
Flags: W
LayerCount: 2
Fore
SplineSet
320 0 m 1,0,-1
 256 0 l 1,1,-1
 192 0 l 1,2,-1
 128 0 l 1,3,-1
 64 0 l 1,4,-1
 0 0 l 1,5,-1
 0 64 l 1,6,-1
 0 128 l 1,7,-1
 0 192 l 1,8,-1
 0 256 l 1,9,-1
 0 320 l 1,10,-1
 0 384 l 1,11,-1
 0 448 l 1,12,-1
 64 448 l 1,13,-1
 128 448 l 1,14,-1
 192 448 l 1,15,-1
 256 448 l 1,16,-1
 320 448 l 1,17,-1
 384 448 l 1,18,-1
 384 384 l 1,19,-1
 448 384 l 1,20,-1
 448 320 l 1,21,-1
 448 256 l 1,22,-1
 448 192 l 1,23,-1
 448 128 l 1,24,-1
 448 64 l 1,25,-1
 384 64 l 1,26,-1
 384 0 l 1,27,-1
 320 0 l 1,0,-1
256 128 m 1,28,-1
 320 128 l 1,29,-1
 320 192 l 1,30,-1
 320 256 l 1,31,-1
 320 320 l 1,32,-1
 256 320 l 1,33,-1
 192 320 l 1,34,-1
 128 320 l 1,35,-1
 128 256 l 1,36,-1
 128 192 l 1,37,-1
 128 128 l 1,38,-1
 192 128 l 1,39,-1
 256 128 l 1,28,-1
EndSplineSet
Validated: 1
EndChar

StartChar: E
Encoding: 69 69 40
Width: 512
GlyphClass: 2
Flags: W
LayerCount: 2
Fore
SplineSet
384 0 m 1,0,-1
 320 0 l 1,1,-1
 256 0 l 1,2,-1
 192 0 l 1,3,-1
 128 0 l 1,4,-1
 64 0 l 1,5,-1
 0 0 l 1,6,-1
 0 64 l 1,7,-1
 0 128 l 1,8,-1
 0 192 l 1,9,-1
 0 256 l 1,10,-1
 0 320 l 1,11,-1
 0 384 l 1,12,-1
 0 448 l 1,13,-1
 64 448 l 1,14,-1
 128 448 l 1,15,-1
 192 448 l 1,16,-1
 256 448 l 1,17,-1
 320 448 l 1,18,-1
 384 448 l 1,19,-1
 448 448 l 1,20,-1
 448 384 l 1,21,-1
 448 320 l 1,22,-1
 384 320 l 1,23,-1
 320 320 l 1,24,-1
 256 320 l 1,25,-1
 192 320 l 1,26,-1
 128 320 l 1,27,-1
 128 256 l 1,28,-1
 192 256 l 1,29,-1
 256 256 l 1,30,-1
 320 256 l 1,31,-1
 320 192 l 1,32,-1
 256 192 l 1,33,-1
 192 192 l 1,34,-1
 128 192 l 1,35,-1
 128 128 l 1,36,-1
 192 128 l 1,37,-1
 256 128 l 1,38,-1
 320 128 l 1,39,-1
 384 128 l 1,40,-1
 448 128 l 1,41,-1
 448 64 l 1,42,-1
 448 0 l 1,43,-1
 384 0 l 1,0,-1
EndSplineSet
Validated: 1
EndChar

StartChar: F
Encoding: 70 70 41
Width: 512
GlyphClass: 2
Flags: W
LayerCount: 2
Fore
SplineSet
64 0 m 1,0,-1
 0 0 l 1,1,-1
 0 64 l 1,2,-1
 0 128 l 1,3,-1
 0 192 l 1,4,-1
 0 256 l 1,5,-1
 0 320 l 1,6,-1
 0 384 l 1,7,-1
 0 448 l 1,8,-1
 64 448 l 1,9,-1
 128 448 l 1,10,-1
 192 448 l 1,11,-1
 256 448 l 1,12,-1
 320 448 l 1,13,-1
 384 448 l 1,14,-1
 448 448 l 1,15,-1
 448 384 l 1,16,-1
 448 320 l 1,17,-1
 384 320 l 1,18,-1
 320 320 l 1,19,-1
 256 320 l 1,20,-1
 192 320 l 1,21,-1
 128 320 l 1,22,-1
 128 256 l 1,23,-1
 192 256 l 1,24,-1
 256 256 l 1,25,-1
 320 256 l 1,26,-1
 320 192 l 1,27,-1
 320 128 l 1,28,-1
 256 128 l 1,29,-1
 192 128 l 1,30,-1
 128 128 l 1,31,-1
 128 64 l 1,32,-1
 128 0 l 1,33,-1
 64 0 l 1,0,-1
EndSplineSet
Validated: 1
EndChar

StartChar: G
Encoding: 71 71 42
Width: 512
GlyphClass: 2
Flags: W
LayerCount: 2
Fore
SplineSet
384 0 m 1,0,-1
 320 0 l 1,1,-1
 256 0 l 1,2,-1
 192 0 l 1,3,-1
 128 0 l 1,4,-1
 64 0 l 1,5,-1
 64 64 l 1,6,-1
 0 64 l 1,7,-1
 0 128 l 1,8,-1
 0 192 l 1,9,-1
 0 256 l 1,10,-1
 0 320 l 1,11,-1
 0 384 l 1,12,-1
 64 384 l 1,13,-1
 64 448 l 1,14,-1
 128 448 l 1,15,-1
 192 448 l 1,16,-1
 256 448 l 1,17,-1
 320 448 l 1,18,-1
 384 448 l 1,19,-1
 448 448 l 1,20,-1
 448 384 l 1,21,-1
 448 320 l 1,22,-1
 384 320 l 1,23,-1
 320 320 l 1,24,-1
 256 320 l 1,25,-1
 192 320 l 1,26,-1
 128 320 l 1,27,-1
 128 256 l 1,28,-1
 128 192 l 1,29,-1
 128 128 l 1,30,-1
 192 128 l 1,31,-1
 256 128 l 1,32,-1
 320 128 l 1,33,-1
 320 192 l 1,34,-1
 256 192 l 1,35,-1
 192 192 l 1,36,-1
 192 256 l 1,37,-1
 256 256 l 1,38,-1
 320 256 l 1,39,-1
 384 256 l 1,40,-1
 448 256 l 1,41,-1
 448 192 l 1,42,-1
 448 128 l 1,43,-1
 448 64 l 1,44,-1
 448 0 l 1,45,-1
 384 0 l 1,0,-1
EndSplineSet
Validated: 1
EndChar

StartChar: H
Encoding: 72 72 43
Width: 512
GlyphClass: 2
Flags: W
LayerCount: 2
Fore
SplineSet
384 0 m 1,0,-1
 320 0 l 1,1,-1
 320 64 l 1,2,-1
 320 128 l 1,3,-1
 256 128 l 1,4,-1
 192 128 l 1,5,-1
 128 128 l 1,6,-1
 128 64 l 1,7,-1
 128 0 l 1,8,-1
 64 0 l 1,9,-1
 0 0 l 1,10,-1
 0 64 l 1,11,-1
 0 128 l 1,12,-1
 0 192 l 1,13,-1
 0 256 l 1,14,-1
 0 320 l 1,15,-1
 0 384 l 1,16,-1
 0 448 l 1,17,-1
 64 448 l 1,18,-1
 128 448 l 1,19,-1
 128 384 l 1,20,-1
 128 320 l 1,21,-1
 128 256 l 1,22,-1
 192 256 l 1,23,-1
 256 256 l 1,24,-1
 320 256 l 1,25,-1
 320 320 l 1,26,-1
 320 384 l 1,27,-1
 320 448 l 1,28,-1
 384 448 l 1,29,-1
 448 448 l 1,30,-1
 448 384 l 1,31,-1
 448 320 l 1,32,-1
 448 256 l 1,33,-1
 448 192 l 1,34,-1
 448 128 l 1,35,-1
 448 64 l 1,36,-1
 448 0 l 1,37,-1
 384 0 l 1,0,-1
EndSplineSet
Validated: 1
EndChar

StartChar: I
Encoding: 73 73 44
Width: 192
GlyphClass: 2
Flags: W
LayerCount: 2
Fore
SplineSet
64 0 m 1,0,-1
 0 0 l 1,1,-1
 0 64 l 1,2,-1
 0 128 l 1,3,-1
 0 192 l 1,4,-1
 0 256 l 1,5,-1
 0 320 l 1,6,-1
 0 384 l 1,7,-1
 0 448 l 1,8,-1
 64 448 l 1,9,-1
 128 448 l 1,10,-1
 128 384 l 1,11,-1
 128 320 l 1,12,-1
 128 256 l 1,13,-1
 128 192 l 1,14,-1
 128 128 l 1,15,-1
 128 64 l 1,16,-1
 128 0 l 1,17,-1
 64 0 l 1,0,-1
EndSplineSet
Validated: 1
EndChar

StartChar: J
Encoding: 74 74 45
Width: 512
GlyphClass: 2
Flags: W
LayerCount: 2
Fore
SplineSet
320 0 m 1,0,-1
 256 0 l 1,1,-1
 192 0 l 1,2,-1
 128 0 l 1,3,-1
 64 0 l 1,4,-1
 64 64 l 1,5,-1
 0 64 l 1,6,-1
 0 128 l 1,7,-1
 0 192 l 1,8,-1
 64 192 l 1,9,-1
 128 192 l 1,10,-1
 128 128 l 1,11,-1
 192 128 l 1,12,-1
 256 128 l 1,13,-1
 320 128 l 1,14,-1
 320 192 l 1,15,-1
 320 256 l 1,16,-1
 320 320 l 1,17,-1
 256 320 l 1,18,-1
 192 320 l 1,19,-1
 128 320 l 1,20,-1
 64 320 l 1,21,-1
 0 320 l 1,22,-1
 0 384 l 1,23,-1
 0 448 l 1,24,-1
 64 448 l 1,25,-1
 128 448 l 1,26,-1
 192 448 l 1,27,-1
 256 448 l 1,28,-1
 320 448 l 1,29,-1
 384 448 l 1,30,-1
 448 448 l 1,31,-1
 448 384 l 1,32,-1
 448 320 l 1,33,-1
 448 256 l 1,34,-1
 448 192 l 1,35,-1
 448 128 l 1,36,-1
 448 64 l 1,37,-1
 384 64 l 1,38,-1
 384 0 l 1,39,-1
 320 0 l 1,0,-1
EndSplineSet
Validated: 1
EndChar

StartChar: K
Encoding: 75 75 46
Width: 512
GlyphClass: 2
Flags: W
LayerCount: 2
Fore
SplineSet
384 0 m 1,0,-1
 320 0 l 1,1,-1
 256 0 l 1,2,-1
 256 64 l 1,3,-1
 192 64 l 1,4,-1
 192 128 l 1,5,-1
 128 128 l 1,6,-1
 128 64 l 1,7,-1
 128 0 l 1,8,-1
 64 0 l 1,9,-1
 0 0 l 1,10,-1
 0 64 l 1,11,-1
 0 128 l 1,12,-1
 0 192 l 1,13,-1
 0 256 l 1,14,-1
 0 320 l 1,15,-1
 0 384 l 1,16,-1
 0 448 l 1,17,-1
 64 448 l 1,18,-1
 128 448 l 1,19,-1
 128 384 l 1,20,-1
 128 320 l 1,21,-1
 192 320 l 1,22,-1
 192 384 l 1,23,-1
 256 384 l 1,24,-1
 256 448 l 1,25,-1
 320 448 l 1,26,-1
 384 448 l 1,27,-1
 448 448 l 1,28,-1
 448 384 l 1,29,-1
 384 384 l 1,30,-1
 384 320 l 1,31,-1
 320 320 l 1,32,-1
 320 256 l 1,33,-1
 256 256 l 1,34,-1
 256 192 l 1,35,-1
 320 192 l 1,36,-1
 320 128 l 1,37,-1
 384 128 l 1,38,-1
 384 64 l 1,39,-1
 448 64 l 1,40,-1
 448 0 l 1,41,-1
 384 0 l 1,0,-1
EndSplineSet
Validated: 1
EndChar

StartChar: L
Encoding: 76 76 47
Width: 512
GlyphClass: 2
Flags: W
LayerCount: 2
Fore
SplineSet
384 0 m 1,0,-1
 320 0 l 1,1,-1
 256 0 l 1,2,-1
 192 0 l 1,3,-1
 128 0 l 1,4,-1
 64 0 l 1,5,-1
 0 0 l 1,6,-1
 0 64 l 1,7,-1
 0 128 l 1,8,-1
 0 192 l 1,9,-1
 0 256 l 1,10,-1
 0 320 l 1,11,-1
 0 384 l 1,12,-1
 0 448 l 1,13,-1
 64 448 l 1,14,-1
 128 448 l 1,15,-1
 128 384 l 1,16,-1
 128 320 l 1,17,-1
 128 256 l 1,18,-1
 128 192 l 1,19,-1
 128 128 l 1,20,-1
 192 128 l 1,21,-1
 256 128 l 1,22,-1
 320 128 l 1,23,-1
 384 128 l 1,24,-1
 448 128 l 1,25,-1
 448 64 l 1,26,-1
 448 0 l 1,27,-1
 384 0 l 1,0,-1
EndSplineSet
Validated: 1
EndChar

StartChar: M
Encoding: 77 77 48
Width: 512
GlyphClass: 2
Flags: W
LayerCount: 2
Fore
SplineSet
192 192 m 1,0,-1
 192 256 l 1,1,-1
 128 256 l 1,2,-1
 128 192 l 1,3,-1
 128 128 l 1,4,-1
 128 64 l 1,5,-1
 128 0 l 1,6,-1
 64 0 l 1,7,-1
 0 0 l 1,8,-1
 0 64 l 1,9,-1
 0 128 l 1,10,-1
 0 192 l 1,11,-1
 0 256 l 1,12,-1
 0 320 l 1,13,-1
 0 384 l 1,14,-1
 0 448 l 1,15,-1
 64 448 l 1,16,-1
 128 448 l 1,17,-1
 128 384 l 1,18,-1
 192 384 l 1,19,-1
 192 320 l 1,20,-1
 256 320 l 1,21,-1
 256 384 l 1,22,-1
 320 384 l 1,23,-1
 320 448 l 1,24,-1
 384 448 l 1,25,-1
 448 448 l 1,26,-1
 448 384 l 1,27,-1
 448 320 l 1,28,-1
 448 256 l 1,29,-1
 448 192 l 1,30,-1
 448 128 l 1,31,-1
 448 64 l 1,32,-1
 448 0 l 1,33,-1
 384 0 l 1,34,-1
 320 0 l 1,35,-1
 320 64 l 1,36,-1
 320 128 l 1,37,-1
 320 192 l 1,38,-1
 320 256 l 1,39,-1
 256 256 l 1,40,-1
 256 192 l 1,41,-1
 192 192 l 1,0,-1
EndSplineSet
Validated: 1
EndChar

StartChar: N
Encoding: 78 78 49
Width: 512
GlyphClass: 2
Flags: W
LayerCount: 2
Fore
SplineSet
384 0 m 1,0,-1
 320 0 l 1,1,-1
 320 64 l 1,2,-1
 320 128 l 1,3,-1
 256 128 l 1,4,-1
 256 192 l 1,5,-1
 192 192 l 1,6,-1
 192 256 l 1,7,-1
 128 256 l 1,8,-1
 128 192 l 1,9,-1
 128 128 l 1,10,-1
 128 64 l 1,11,-1
 128 0 l 1,12,-1
 64 0 l 1,13,-1
 0 0 l 1,14,-1
 0 64 l 1,15,-1
 0 128 l 1,16,-1
 0 192 l 1,17,-1
 0 256 l 1,18,-1
 0 320 l 1,19,-1
 0 384 l 1,20,-1
 0 448 l 1,21,-1
 64 448 l 1,22,-1
 128 448 l 1,23,-1
 128 384 l 1,24,-1
 192 384 l 1,25,-1
 192 320 l 1,26,-1
 256 320 l 1,27,-1
 256 256 l 1,28,-1
 320 256 l 1,29,-1
 320 320 l 1,30,-1
 320 384 l 1,31,-1
 320 448 l 1,32,-1
 384 448 l 1,33,-1
 448 448 l 1,34,-1
 448 384 l 1,35,-1
 448 320 l 1,36,-1
 448 256 l 1,37,-1
 448 192 l 1,38,-1
 448 128 l 1,39,-1
 448 64 l 1,40,-1
 448 0 l 1,41,-1
 384 0 l 1,0,-1
EndSplineSet
Validated: 1
EndChar

StartChar: O
Encoding: 79 79 50
Width: 512
GlyphClass: 2
Flags: W
LayerCount: 2
Fore
SplineSet
320 0 m 1,0,-1
 256 0 l 1,1,-1
 192 0 l 1,2,-1
 128 0 l 1,3,-1
 64 0 l 1,4,-1
 64 64 l 1,5,-1
 0 64 l 1,6,-1
 0 128 l 1,7,-1
 0 192 l 1,8,-1
 0 256 l 1,9,-1
 0 320 l 1,10,-1
 0 384 l 1,11,-1
 64 384 l 1,12,-1
 64 448 l 1,13,-1
 128 448 l 1,14,-1
 192 448 l 1,15,-1
 256 448 l 1,16,-1
 320 448 l 1,17,-1
 384 448 l 1,18,-1
 384 384 l 1,19,-1
 448 384 l 1,20,-1
 448 320 l 1,21,-1
 448 256 l 1,22,-1
 448 192 l 1,23,-1
 448 128 l 1,24,-1
 448 64 l 1,25,-1
 384 64 l 1,26,-1
 384 0 l 1,27,-1
 320 0 l 1,0,-1
256 128 m 1,28,-1
 320 128 l 1,29,-1
 320 192 l 1,30,-1
 320 256 l 1,31,-1
 320 320 l 1,32,-1
 256 320 l 1,33,-1
 192 320 l 1,34,-1
 128 320 l 1,35,-1
 128 256 l 1,36,-1
 128 192 l 1,37,-1
 128 128 l 1,38,-1
 192 128 l 1,39,-1
 256 128 l 1,28,-1
EndSplineSet
Validated: 1
EndChar

StartChar: P
Encoding: 80 80 51
Width: 512
GlyphClass: 2
Flags: W
LayerCount: 2
Fore
SplineSet
64 0 m 1,0,-1
 0 0 l 1,1,-1
 0 64 l 1,2,-1
 0 128 l 1,3,-1
 0 192 l 1,4,-1
 0 256 l 1,5,-1
 0 320 l 1,6,-1
 0 384 l 1,7,-1
 0 448 l 1,8,-1
 64 448 l 1,9,-1
 128 448 l 1,10,-1
 192 448 l 1,11,-1
 256 448 l 1,12,-1
 320 448 l 1,13,-1
 384 448 l 1,14,-1
 384 384 l 1,15,-1
 448 384 l 1,16,-1
 448 320 l 1,17,-1
 448 256 l 1,18,-1
 448 192 l 1,19,-1
 384 192 l 1,20,-1
 384 128 l 1,21,-1
 320 128 l 1,22,-1
 256 128 l 1,23,-1
 192 128 l 1,24,-1
 128 128 l 1,25,-1
 128 64 l 1,26,-1
 128 0 l 1,27,-1
 64 0 l 1,0,-1
256 256 m 1,28,-1
 320 256 l 1,29,-1
 320 320 l 1,30,-1
 256 320 l 1,31,-1
 192 320 l 1,32,-1
 128 320 l 1,33,-1
 128 256 l 1,34,-1
 192 256 l 1,35,-1
 256 256 l 1,28,-1
EndSplineSet
Validated: 1
EndChar

StartChar: Q
Encoding: 81 81 52
Width: 512
GlyphClass: 2
Flags: W
LayerCount: 2
Fore
SplineSet
384 0 m 1,0,-1
 320 0 l 1,1,-1
 256 0 l 1,2,-1
 192 0 l 1,3,-1
 128 0 l 1,4,-1
 64 0 l 1,5,-1
 64 64 l 1,6,-1
 0 64 l 1,7,-1
 0 128 l 1,8,-1
 0 192 l 1,9,-1
 0 256 l 1,10,-1
 0 320 l 1,11,-1
 0 384 l 1,12,-1
 64 384 l 1,13,-1
 64 448 l 1,14,-1
 128 448 l 1,15,-1
 192 448 l 1,16,-1
 256 448 l 1,17,-1
 320 448 l 1,18,-1
 384 448 l 1,19,-1
 384 384 l 1,20,-1
 448 384 l 1,21,-1
 448 320 l 1,22,-1
 448 256 l 1,23,-1
 448 192 l 1,24,-1
 448 128 l 1,25,-1
 448 64 l 1,26,-1
 448 0 l 1,27,-1
 384 0 l 1,0,-1
192 128 m 1,28,-1
 256 128 l 1,29,-1
 256 192 l 1,30,-1
 320 192 l 1,31,-1
 320 256 l 1,32,-1
 320 320 l 1,33,-1
 256 320 l 1,34,-1
 192 320 l 1,35,-1
 128 320 l 1,36,-1
 128 256 l 1,37,-1
 128 192 l 1,38,-1
 128 128 l 1,39,-1
 192 128 l 1,28,-1
EndSplineSet
Validated: 1
EndChar

StartChar: R
Encoding: 82 82 53
Width: 512
GlyphClass: 2
Flags: W
LayerCount: 2
Fore
SplineSet
384 0 m 1,0,-1
 320 0 l 1,1,-1
 320 64 l 1,2,-1
 320 128 l 1,3,-1
 256 128 l 1,4,-1
 192 128 l 1,5,-1
 128 128 l 1,6,-1
 128 64 l 1,7,-1
 128 0 l 1,8,-1
 64 0 l 1,9,-1
 0 0 l 1,10,-1
 0 64 l 1,11,-1
 0 128 l 1,12,-1
 0 192 l 1,13,-1
 0 256 l 1,14,-1
 0 320 l 1,15,-1
 0 384 l 1,16,-1
 0 448 l 1,17,-1
 64 448 l 1,18,-1
 128 448 l 1,19,-1
 192 448 l 1,20,-1
 256 448 l 1,21,-1
 320 448 l 1,22,-1
 384 448 l 1,23,-1
 384 384 l 1,24,-1
 448 384 l 1,25,-1
 448 320 l 1,26,-1
 448 256 l 1,27,-1
 448 192 l 1,28,-1
 384 192 l 1,29,-1
 384 128 l 1,30,-1
 448 128 l 1,31,-1
 448 64 l 1,32,-1
 448 0 l 1,33,-1
 384 0 l 1,0,-1
256 256 m 1,34,-1
 320 256 l 1,35,-1
 320 320 l 1,36,-1
 256 320 l 1,37,-1
 192 320 l 1,38,-1
 128 320 l 1,39,-1
 128 256 l 1,40,-1
 192 256 l 1,41,-1
 256 256 l 1,34,-1
EndSplineSet
Validated: 1
EndChar

StartChar: S
Encoding: 83 83 54
Width: 512
GlyphClass: 2
Flags: W
LayerCount: 2
Fore
SplineSet
320 0 m 1,0,-1
 256 0 l 1,1,-1
 192 0 l 1,2,-1
 128 0 l 1,3,-1
 64 0 l 1,4,-1
 0 0 l 1,5,-1
 0 64 l 1,6,-1
 0 128 l 1,7,-1
 64 128 l 1,8,-1
 128 128 l 1,9,-1
 192 128 l 1,10,-1
 256 128 l 1,11,-1
 320 128 l 1,12,-1
 320 192 l 1,13,-1
 256 192 l 1,14,-1
 192 192 l 1,15,-1
 128 192 l 1,16,-1
 64 192 l 1,17,-1
 0 192 l 1,18,-1
 0 256 l 1,19,-1
 0 320 l 1,20,-1
 0 384 l 1,21,-1
 64 384 l 1,22,-1
 64 448 l 1,23,-1
 128 448 l 1,24,-1
 192 448 l 1,25,-1
 256 448 l 1,26,-1
 320 448 l 1,27,-1
 384 448 l 1,28,-1
 448 448 l 1,29,-1
 448 384 l 1,30,-1
 448 320 l 1,31,-1
 384 320 l 1,32,-1
 320 320 l 1,33,-1
 256 320 l 1,34,-1
 192 320 l 1,35,-1
 128 320 l 1,36,-1
 128 256 l 1,37,-1
 192 256 l 1,38,-1
 256 256 l 1,39,-1
 320 256 l 1,40,-1
 384 256 l 1,41,-1
 448 256 l 1,42,-1
 448 192 l 1,43,-1
 448 128 l 1,44,-1
 448 64 l 1,45,-1
 384 64 l 1,46,-1
 384 0 l 1,47,-1
 320 0 l 1,0,-1
EndSplineSet
Validated: 1
EndChar

StartChar: T
Encoding: 84 84 55
Width: 448
GlyphClass: 2
Flags: W
LayerCount: 2
Fore
SplineSet
192 0 m 1,0,-1
 128 0 l 1,1,-1
 128 64 l 1,2,-1
 128 128 l 1,3,-1
 128 192 l 1,4,-1
 128 256 l 1,5,-1
 128 320 l 1,6,-1
 64 320 l 1,7,-1
 0 320 l 1,8,-1
 0 384 l 1,9,-1
 0 448 l 1,10,-1
 64 448 l 1,11,-1
 128 448 l 1,12,-1
 192 448 l 1,13,-1
 256 448 l 1,14,-1
 320 448 l 1,15,-1
 384 448 l 1,16,-1
 384 384 l 1,17,-1
 384 320 l 1,18,-1
 320 320 l 1,19,-1
 256 320 l 1,20,-1
 256 256 l 1,21,-1
 256 192 l 1,22,-1
 256 128 l 1,23,-1
 256 64 l 1,24,-1
 256 0 l 1,25,-1
 192 0 l 1,0,-1
EndSplineSet
Validated: 1
EndChar

StartChar: U
Encoding: 85 85 56
Width: 512
GlyphClass: 2
Flags: W
LayerCount: 2
Fore
SplineSet
320 0 m 1,0,-1
 256 0 l 1,1,-1
 192 0 l 1,2,-1
 128 0 l 1,3,-1
 64 0 l 1,4,-1
 64 64 l 1,5,-1
 0 64 l 1,6,-1
 0 128 l 1,7,-1
 0 192 l 1,8,-1
 0 256 l 1,9,-1
 0 320 l 1,10,-1
 0 384 l 1,11,-1
 0 448 l 1,12,-1
 64 448 l 1,13,-1
 128 448 l 1,14,-1
 128 384 l 1,15,-1
 128 320 l 1,16,-1
 128 256 l 1,17,-1
 128 192 l 1,18,-1
 128 128 l 1,19,-1
 192 128 l 1,20,-1
 256 128 l 1,21,-1
 320 128 l 1,22,-1
 320 192 l 1,23,-1
 320 256 l 1,24,-1
 320 320 l 1,25,-1
 320 384 l 1,26,-1
 320 448 l 1,27,-1
 384 448 l 1,28,-1
 448 448 l 1,29,-1
 448 384 l 1,30,-1
 448 320 l 1,31,-1
 448 256 l 1,32,-1
 448 192 l 1,33,-1
 448 128 l 1,34,-1
 448 64 l 1,35,-1
 384 64 l 1,36,-1
 384 0 l 1,37,-1
 320 0 l 1,0,-1
EndSplineSet
Validated: 1
EndChar

StartChar: V
Encoding: 86 86 57
Width: 512
GlyphClass: 2
Flags: W
LayerCount: 2
Fore
SplineSet
192 0 m 1,0,-1
 192 64 l 1,1,-1
 128 64 l 1,2,-1
 128 128 l 1,3,-1
 128 192 l 1,4,-1
 64 192 l 1,5,-1
 64 256 l 1,6,-1
 64 320 l 1,7,-1
 0 320 l 1,8,-1
 0 384 l 1,9,-1
 0 448 l 1,10,-1
 64 448 l 1,11,-1
 128 448 l 1,12,-1
 128 384 l 1,13,-1
 128 320 l 1,14,-1
 192 320 l 1,15,-1
 192 256 l 1,16,-1
 192 192 l 1,17,-1
 256 192 l 1,18,-1
 256 256 l 1,19,-1
 256 320 l 1,20,-1
 320 320 l 1,21,-1
 320 384 l 1,22,-1
 320 448 l 1,23,-1
 384 448 l 1,24,-1
 448 448 l 1,25,-1
 448 384 l 1,26,-1
 448 320 l 1,27,-1
 384 320 l 1,28,-1
 384 256 l 1,29,-1
 384 192 l 1,30,-1
 320 192 l 1,31,-1
 320 128 l 1,32,-1
 320 64 l 1,33,-1
 256 64 l 1,34,-1
 256 0 l 1,35,-1
 192 0 l 1,0,-1
EndSplineSet
Validated: 1
EndChar

StartChar: W
Encoding: 87 87 58
Width: 512
GlyphClass: 2
Flags: W
LayerCount: 2
Fore
SplineSet
384 0 m 1,0,-1
 320 0 l 1,1,-1
 320 64 l 1,2,-1
 256 64 l 1,3,-1
 256 128 l 1,4,-1
 192 128 l 1,5,-1
 192 64 l 1,6,-1
 128 64 l 1,7,-1
 128 0 l 1,8,-1
 64 0 l 1,9,-1
 0 0 l 1,10,-1
 0 64 l 1,11,-1
 0 128 l 1,12,-1
 0 192 l 1,13,-1
 0 256 l 1,14,-1
 0 320 l 1,15,-1
 0 384 l 1,16,-1
 0 448 l 1,17,-1
 64 448 l 1,18,-1
 128 448 l 1,19,-1
 128 384 l 1,20,-1
 128 320 l 1,21,-1
 128 256 l 1,22,-1
 128 192 l 1,23,-1
 192 192 l 1,24,-1
 192 256 l 1,25,-1
 256 256 l 1,26,-1
 256 192 l 1,27,-1
 320 192 l 1,28,-1
 320 256 l 1,29,-1
 320 320 l 1,30,-1
 320 384 l 1,31,-1
 320 448 l 1,32,-1
 384 448 l 1,33,-1
 448 448 l 1,34,-1
 448 384 l 1,35,-1
 448 320 l 1,36,-1
 448 256 l 1,37,-1
 448 192 l 1,38,-1
 448 128 l 1,39,-1
 448 64 l 1,40,-1
 448 0 l 1,41,-1
 384 0 l 1,0,-1
EndSplineSet
Validated: 1
EndChar

StartChar: X
Encoding: 88 88 59
Width: 512
GlyphClass: 2
Flags: W
LayerCount: 2
Fore
SplineSet
384 0 m 1,0,-1
 320 0 l 1,1,-1
 320 64 l 1,2,-1
 256 64 l 1,3,-1
 256 128 l 1,4,-1
 192 128 l 1,5,-1
 192 64 l 1,6,-1
 128 64 l 1,7,-1
 128 0 l 1,8,-1
 64 0 l 1,9,-1
 0 0 l 1,10,-1
 0 64 l 1,11,-1
 0 128 l 1,12,-1
 64 128 l 1,13,-1
 64 192 l 1,14,-1
 128 192 l 1,15,-1
 128 256 l 1,16,-1
 64 256 l 1,17,-1
 64 320 l 1,18,-1
 0 320 l 1,19,-1
 0 384 l 1,20,-1
 0 448 l 1,21,-1
 64 448 l 1,22,-1
 128 448 l 1,23,-1
 128 384 l 1,24,-1
 192 384 l 1,25,-1
 192 320 l 1,26,-1
 256 320 l 1,27,-1
 256 384 l 1,28,-1
 320 384 l 1,29,-1
 320 448 l 1,30,-1
 384 448 l 1,31,-1
 448 448 l 1,32,-1
 448 384 l 1,33,-1
 448 320 l 1,34,-1
 384 320 l 1,35,-1
 384 256 l 1,36,-1
 320 256 l 1,37,-1
 320 192 l 1,38,-1
 384 192 l 1,39,-1
 384 128 l 1,40,-1
 448 128 l 1,41,-1
 448 64 l 1,42,-1
 448 0 l 1,43,-1
 384 0 l 1,0,-1
EndSplineSet
Validated: 1
EndChar

StartChar: Y
Encoding: 89 89 60
Width: 512
GlyphClass: 2
Flags: W
LayerCount: 2
Fore
SplineSet
256 0 m 1,0,-1
 192 0 l 1,1,-1
 128 0 l 1,2,-1
 128 64 l 1,3,-1
 128 128 l 1,4,-1
 128 192 l 1,5,-1
 64 192 l 1,6,-1
 64 256 l 1,7,-1
 0 256 l 1,8,-1
 0 320 l 1,9,-1
 0 384 l 1,10,-1
 0 448 l 1,11,-1
 64 448 l 1,12,-1
 128 448 l 1,13,-1
 128 384 l 1,14,-1
 128 320 l 1,15,-1
 192 320 l 1,16,-1
 192 256 l 1,17,-1
 256 256 l 1,18,-1
 256 320 l 1,19,-1
 320 320 l 1,20,-1
 320 384 l 1,21,-1
 320 448 l 1,22,-1
 384 448 l 1,23,-1
 448 448 l 1,24,-1
 448 384 l 1,25,-1
 448 320 l 1,26,-1
 448 256 l 1,27,-1
 384 256 l 1,28,-1
 384 192 l 1,29,-1
 320 192 l 1,30,-1
 320 128 l 1,31,-1
 320 64 l 1,32,-1
 320 0 l 1,33,-1
 256 0 l 1,0,-1
EndSplineSet
Validated: 1
EndChar

StartChar: Z
Encoding: 90 90 61
Width: 512
GlyphClass: 2
Flags: W
LayerCount: 2
Fore
SplineSet
384 0 m 1,0,-1
 320 0 l 1,1,-1
 256 0 l 1,2,-1
 192 0 l 1,3,-1
 128 0 l 1,4,-1
 64 0 l 1,5,-1
 0 0 l 1,6,-1
 0 64 l 1,7,-1
 0 128 l 1,8,-1
 64 128 l 1,9,-1
 64 192 l 1,10,-1
 128 192 l 1,11,-1
 128 256 l 1,12,-1
 192 256 l 1,13,-1
 256 256 l 1,14,-1
 256 320 l 1,15,-1
 192 320 l 1,16,-1
 128 320 l 1,17,-1
 64 320 l 1,18,-1
 0 320 l 1,19,-1
 0 384 l 1,20,-1
 0 448 l 1,21,-1
 64 448 l 1,22,-1
 128 448 l 1,23,-1
 192 448 l 1,24,-1
 256 448 l 1,25,-1
 320 448 l 1,26,-1
 384 448 l 1,27,-1
 448 448 l 1,28,-1
 448 384 l 1,29,-1
 448 320 l 1,30,-1
 448 256 l 1,31,-1
 384 256 l 1,32,-1
 320 256 l 1,33,-1
 320 192 l 1,34,-1
 256 192 l 1,35,-1
 256 128 l 1,36,-1
 320 128 l 1,37,-1
 384 128 l 1,38,-1
 448 128 l 1,39,-1
 448 64 l 1,40,-1
 448 0 l 1,41,-1
 384 0 l 1,0,-1
EndSplineSet
Validated: 1
EndChar

StartChar: bracketleft
Encoding: 91 91 62
Width: 320
GlyphClass: 2
Flags: W
LayerCount: 2
Fore
SplineSet
192 64 m 1,0,-1
 256 64 l 1,1,-1
 256 0 l 1,2,-1
 192 0 l 1,3,-1
 128 0 l 1,4,-1
 64 0 l 1,5,-1
 0 0 l 1,6,-1
 0 64 l 1,7,-1
 0 128 l 1,8,-1
 0 192 l 1,9,-1
 0 256 l 1,10,-1
 0 320 l 1,11,-1
 0 384 l 1,12,-1
 0 448 l 1,13,-1
 64 448 l 1,14,-1
 128 448 l 1,15,-1
 192 448 l 1,16,-1
 256 448 l 1,17,-1
 256 384 l 1,18,-1
 192 384 l 1,19,-1
 128 384 l 1,20,-1
 128 320 l 1,21,-1
 128 256 l 1,22,-1
 128 192 l 1,23,-1
 128 128 l 1,24,-1
 128 64 l 1,25,-1
 192 64 l 1,0,-1
EndSplineSet
Validated: 1
EndChar

StartChar: backslash
Encoding: 92 92 63
Width: 256
GlyphClass: 2
Flags: W
LayerCount: 2
Fore
SplineSet
128 0 m 1,0,-1
 128 64 l 1,1,-1
 128 128 l 1,2,-1
 192 128 l 1,3,-1
 192 64 l 1,4,-1
 192 0 l 1,5,-1
 128 0 l 1,0,-1
128 128 m 1,6,-1
 64 128 l 1,7,-1
 64 192 l 1,8,-1
 64 256 l 1,9,-1
 128 256 l 1,10,-1
 128 192 l 1,11,-1
 128 128 l 1,6,-1
64 256 m 1,12,-1
 0 256 l 1,13,-1
 0 320 l 1,14,-1
 0 384 l 1,15,-1
 64 384 l 1,16,-1
 64 320 l 1,17,-1
 64 256 l 1,12,-1
EndSplineSet
Validated: 5
EndChar

StartChar: bracketright
Encoding: 93 93 64
Width: 320
GlyphClass: 2
Flags: W
LayerCount: 2
Fore
SplineSet
192 0 m 1,0,-1
 128 0 l 1,1,-1
 64 0 l 1,2,-1
 0 0 l 1,3,-1
 0 64 l 1,4,-1
 64 64 l 1,5,-1
 128 64 l 1,6,-1
 128 128 l 1,7,-1
 128 192 l 1,8,-1
 128 256 l 1,9,-1
 128 320 l 1,10,-1
 128 384 l 1,11,-1
 64 384 l 1,12,-1
 0 384 l 1,13,-1
 0 448 l 1,14,-1
 64 448 l 1,15,-1
 128 448 l 1,16,-1
 192 448 l 1,17,-1
 256 448 l 1,18,-1
 256 384 l 1,19,-1
 256 320 l 1,20,-1
 256 256 l 1,21,-1
 256 192 l 1,22,-1
 256 128 l 1,23,-1
 256 64 l 1,24,-1
 256 0 l 1,25,-1
 192 0 l 1,0,-1
EndSplineSet
Validated: 1
EndChar

StartChar: asciicircum
Encoding: 94 94 65
Width: 320
GlyphClass: 2
Flags: W
LayerCount: 2
Fore
SplineSet
192 320 m 1,0,-1
 192 384 l 1,1,-1
 256 384 l 1,2,-1
 256 320 l 1,3,-1
 192 320 l 1,0,-1
0 320 m 1,4,-1
 0 384 l 1,5,-1
 64 384 l 1,6,-1
 64 320 l 1,7,-1
 0 320 l 1,4,-1
192 384 m 1,8,-1
 128 384 l 1,9,-1
 64 384 l 1,10,-1
 64 448 l 1,11,-1
 128 448 l 1,12,-1
 192 448 l 1,13,-1
 192 384 l 1,8,-1
EndSplineSet
Validated: 5
EndChar

StartChar: underscore
Encoding: 95 95 66
Width: 384
GlyphClass: 2
Flags: W
LayerCount: 2
Fore
SplineSet
256 64 m 1,0,-1
 320 64 l 1,1,-1
 320 0 l 1,2,-1
 256 0 l 1,3,-1
 192 0 l 1,4,-1
 128 0 l 1,5,-1
 64 0 l 1,6,-1
 0 0 l 1,7,-1
 0 64 l 1,8,-1
 64 64 l 1,9,-1
 128 64 l 1,10,-1
 192 64 l 1,11,-1
 256 64 l 1,0,-1
EndSplineSet
Validated: 1
EndChar

StartChar: grave
Encoding: 96 96 67
Width: 128
GlyphClass: 2
Flags: W
LayerCount: 2
Fore
SplineSet
0 320 m 1,0,-1
 0 384 l 1,1,-1
 0 448 l 1,2,-1
 64 448 l 1,3,-1
 64 384 l 1,4,-1
 64 320 l 1,5,-1
 0 320 l 1,0,-1
EndSplineSet
Validated: 1
EndChar

StartChar: a
Encoding: 97 97 68
Width: 512
GlyphClass: 2
Flags: W
LayerCount: 2
Fore
SplineSet
384 0 m 1,0,-1
 320 0 l 1,1,-1
 320 64 l 1,2,-1
 320 128 l 1,3,-1
 256 128 l 1,4,-1
 192 128 l 1,5,-1
 128 128 l 1,6,-1
 128 64 l 1,7,-1
 128 0 l 1,8,-1
 64 0 l 1,9,-1
 0 0 l 1,10,-1
 0 64 l 1,11,-1
 0 128 l 1,12,-1
 0 192 l 1,13,-1
 0 256 l 1,14,-1
 0 320 l 1,15,-1
 0 384 l 1,16,-1
 64 384 l 1,17,-1
 64 448 l 1,18,-1
 128 448 l 1,19,-1
 192 448 l 1,20,-1
 256 448 l 1,21,-1
 320 448 l 1,22,-1
 384 448 l 1,23,-1
 384 384 l 1,24,-1
 448 384 l 1,25,-1
 448 320 l 1,26,-1
 448 256 l 1,27,-1
 448 192 l 1,28,-1
 448 128 l 1,29,-1
 448 64 l 1,30,-1
 448 0 l 1,31,-1
 384 0 l 1,0,-1
256 256 m 1,32,-1
 320 256 l 1,33,-1
 320 320 l 1,34,-1
 256 320 l 1,35,-1
 192 320 l 1,36,-1
 128 320 l 1,37,-1
 128 256 l 1,38,-1
 192 256 l 1,39,-1
 256 256 l 1,32,-1
EndSplineSet
Validated: 1
EndChar

StartChar: b
Encoding: 98 98 69
Width: 512
GlyphClass: 2
Flags: W
LayerCount: 2
Fore
SplineSet
320 0 m 1,0,-1
 256 0 l 1,1,-1
 192 0 l 1,2,-1
 128 0 l 1,3,-1
 64 0 l 1,4,-1
 0 0 l 1,5,-1
 0 64 l 1,6,-1
 0 128 l 1,7,-1
 0 192 l 1,8,-1
 0 256 l 1,9,-1
 0 320 l 1,10,-1
 0 384 l 1,11,-1
 0 448 l 1,12,-1
 64 448 l 1,13,-1
 128 448 l 1,14,-1
 192 448 l 1,15,-1
 256 448 l 1,16,-1
 320 448 l 1,17,-1
 384 448 l 1,18,-1
 384 384 l 1,19,-1
 448 384 l 1,20,-1
 448 320 l 1,21,-1
 448 256 l 1,22,-1
 384 256 l 1,23,-1
 384 192 l 1,24,-1
 448 192 l 1,25,-1
 448 128 l 1,26,-1
 448 64 l 1,27,-1
 384 64 l 1,28,-1
 384 0 l 1,29,-1
 320 0 l 1,0,-1
256 128 m 1,30,-1
 320 128 l 1,31,-1
 320 192 l 1,32,-1
 256 192 l 1,33,-1
 192 192 l 1,34,-1
 128 192 l 1,35,-1
 128 128 l 1,36,-1
 192 128 l 1,37,-1
 256 128 l 1,30,-1
256 256 m 1,38,-1
 320 256 l 1,39,-1
 320 320 l 1,40,-1
 256 320 l 1,41,-1
 192 320 l 1,42,-1
 128 320 l 1,43,-1
 128 256 l 1,44,-1
 192 256 l 1,45,-1
 256 256 l 1,38,-1
EndSplineSet
Validated: 1
EndChar

StartChar: c
Encoding: 99 99 70
Width: 512
GlyphClass: 2
Flags: W
LayerCount: 2
Fore
SplineSet
384 0 m 1,0,-1
 320 0 l 1,1,-1
 256 0 l 1,2,-1
 192 0 l 1,3,-1
 128 0 l 1,4,-1
 64 0 l 1,5,-1
 64 64 l 1,6,-1
 0 64 l 1,7,-1
 0 128 l 1,8,-1
 0 192 l 1,9,-1
 0 256 l 1,10,-1
 0 320 l 1,11,-1
 0 384 l 1,12,-1
 64 384 l 1,13,-1
 64 448 l 1,14,-1
 128 448 l 1,15,-1
 192 448 l 1,16,-1
 256 448 l 1,17,-1
 320 448 l 1,18,-1
 384 448 l 1,19,-1
 448 448 l 1,20,-1
 448 384 l 1,21,-1
 448 320 l 1,22,-1
 384 320 l 1,23,-1
 320 320 l 1,24,-1
 256 320 l 1,25,-1
 192 320 l 1,26,-1
 128 320 l 1,27,-1
 128 256 l 1,28,-1
 128 192 l 1,29,-1
 128 128 l 1,30,-1
 192 128 l 1,31,-1
 256 128 l 1,32,-1
 320 128 l 1,33,-1
 384 128 l 1,34,-1
 448 128 l 1,35,-1
 448 64 l 1,36,-1
 448 0 l 1,37,-1
 384 0 l 1,0,-1
EndSplineSet
Validated: 1
EndChar

StartChar: d
Encoding: 100 100 71
Width: 512
GlyphClass: 2
Flags: W
LayerCount: 2
Fore
SplineSet
320 0 m 1,0,-1
 256 0 l 1,1,-1
 192 0 l 1,2,-1
 128 0 l 1,3,-1
 64 0 l 1,4,-1
 0 0 l 1,5,-1
 0 64 l 1,6,-1
 0 128 l 1,7,-1
 0 192 l 1,8,-1
 0 256 l 1,9,-1
 0 320 l 1,10,-1
 0 384 l 1,11,-1
 0 448 l 1,12,-1
 64 448 l 1,13,-1
 128 448 l 1,14,-1
 192 448 l 1,15,-1
 256 448 l 1,16,-1
 320 448 l 1,17,-1
 384 448 l 1,18,-1
 384 384 l 1,19,-1
 448 384 l 1,20,-1
 448 320 l 1,21,-1
 448 256 l 1,22,-1
 448 192 l 1,23,-1
 448 128 l 1,24,-1
 448 64 l 1,25,-1
 384 64 l 1,26,-1
 384 0 l 1,27,-1
 320 0 l 1,0,-1
256 128 m 1,28,-1
 320 128 l 1,29,-1
 320 192 l 1,30,-1
 320 256 l 1,31,-1
 320 320 l 1,32,-1
 256 320 l 1,33,-1
 192 320 l 1,34,-1
 128 320 l 1,35,-1
 128 256 l 1,36,-1
 128 192 l 1,37,-1
 128 128 l 1,38,-1
 192 128 l 1,39,-1
 256 128 l 1,28,-1
EndSplineSet
Validated: 1
EndChar

StartChar: e
Encoding: 101 101 72
Width: 512
GlyphClass: 2
Flags: W
LayerCount: 2
Fore
SplineSet
384 0 m 1,0,-1
 320 0 l 1,1,-1
 256 0 l 1,2,-1
 192 0 l 1,3,-1
 128 0 l 1,4,-1
 64 0 l 1,5,-1
 0 0 l 1,6,-1
 0 64 l 1,7,-1
 0 128 l 1,8,-1
 0 192 l 1,9,-1
 0 256 l 1,10,-1
 0 320 l 1,11,-1
 0 384 l 1,12,-1
 0 448 l 1,13,-1
 64 448 l 1,14,-1
 128 448 l 1,15,-1
 192 448 l 1,16,-1
 256 448 l 1,17,-1
 320 448 l 1,18,-1
 384 448 l 1,19,-1
 448 448 l 1,20,-1
 448 384 l 1,21,-1
 448 320 l 1,22,-1
 384 320 l 1,23,-1
 320 320 l 1,24,-1
 256 320 l 1,25,-1
 192 320 l 1,26,-1
 128 320 l 1,27,-1
 128 256 l 1,28,-1
 192 256 l 1,29,-1
 256 256 l 1,30,-1
 320 256 l 1,31,-1
 320 192 l 1,32,-1
 256 192 l 1,33,-1
 192 192 l 1,34,-1
 128 192 l 1,35,-1
 128 128 l 1,36,-1
 192 128 l 1,37,-1
 256 128 l 1,38,-1
 320 128 l 1,39,-1
 384 128 l 1,40,-1
 448 128 l 1,41,-1
 448 64 l 1,42,-1
 448 0 l 1,43,-1
 384 0 l 1,0,-1
EndSplineSet
Validated: 1
EndChar

StartChar: f
Encoding: 102 102 73
Width: 512
GlyphClass: 2
Flags: W
LayerCount: 2
Fore
SplineSet
64 0 m 1,0,-1
 0 0 l 1,1,-1
 0 64 l 1,2,-1
 0 128 l 1,3,-1
 0 192 l 1,4,-1
 0 256 l 1,5,-1
 0 320 l 1,6,-1
 0 384 l 1,7,-1
 0 448 l 1,8,-1
 64 448 l 1,9,-1
 128 448 l 1,10,-1
 192 448 l 1,11,-1
 256 448 l 1,12,-1
 320 448 l 1,13,-1
 384 448 l 1,14,-1
 448 448 l 1,15,-1
 448 384 l 1,16,-1
 448 320 l 1,17,-1
 384 320 l 1,18,-1
 320 320 l 1,19,-1
 256 320 l 1,20,-1
 192 320 l 1,21,-1
 128 320 l 1,22,-1
 128 256 l 1,23,-1
 192 256 l 1,24,-1
 256 256 l 1,25,-1
 320 256 l 1,26,-1
 320 192 l 1,27,-1
 320 128 l 1,28,-1
 256 128 l 1,29,-1
 192 128 l 1,30,-1
 128 128 l 1,31,-1
 128 64 l 1,32,-1
 128 0 l 1,33,-1
 64 0 l 1,0,-1
EndSplineSet
Validated: 1
EndChar

StartChar: g
Encoding: 103 103 74
Width: 512
GlyphClass: 2
Flags: W
LayerCount: 2
Fore
SplineSet
384 0 m 1,0,-1
 320 0 l 1,1,-1
 256 0 l 1,2,-1
 192 0 l 1,3,-1
 128 0 l 1,4,-1
 64 0 l 1,5,-1
 64 64 l 1,6,-1
 0 64 l 1,7,-1
 0 128 l 1,8,-1
 0 192 l 1,9,-1
 0 256 l 1,10,-1
 0 320 l 1,11,-1
 0 384 l 1,12,-1
 64 384 l 1,13,-1
 64 448 l 1,14,-1
 128 448 l 1,15,-1
 192 448 l 1,16,-1
 256 448 l 1,17,-1
 320 448 l 1,18,-1
 384 448 l 1,19,-1
 448 448 l 1,20,-1
 448 384 l 1,21,-1
 448 320 l 1,22,-1
 384 320 l 1,23,-1
 320 320 l 1,24,-1
 256 320 l 1,25,-1
 192 320 l 1,26,-1
 128 320 l 1,27,-1
 128 256 l 1,28,-1
 128 192 l 1,29,-1
 128 128 l 1,30,-1
 192 128 l 1,31,-1
 256 128 l 1,32,-1
 320 128 l 1,33,-1
 320 192 l 1,34,-1
 256 192 l 1,35,-1
 192 192 l 1,36,-1
 192 256 l 1,37,-1
 256 256 l 1,38,-1
 320 256 l 1,39,-1
 384 256 l 1,40,-1
 448 256 l 1,41,-1
 448 192 l 1,42,-1
 448 128 l 1,43,-1
 448 64 l 1,44,-1
 448 0 l 1,45,-1
 384 0 l 1,0,-1
EndSplineSet
Validated: 1
EndChar

StartChar: h
Encoding: 104 104 75
Width: 512
GlyphClass: 2
Flags: W
LayerCount: 2
Fore
SplineSet
384 0 m 1,0,-1
 320 0 l 1,1,-1
 320 64 l 1,2,-1
 320 128 l 1,3,-1
 256 128 l 1,4,-1
 192 128 l 1,5,-1
 128 128 l 1,6,-1
 128 64 l 1,7,-1
 128 0 l 1,8,-1
 64 0 l 1,9,-1
 0 0 l 1,10,-1
 0 64 l 1,11,-1
 0 128 l 1,12,-1
 0 192 l 1,13,-1
 0 256 l 1,14,-1
 0 320 l 1,15,-1
 0 384 l 1,16,-1
 0 448 l 1,17,-1
 64 448 l 1,18,-1
 128 448 l 1,19,-1
 128 384 l 1,20,-1
 128 320 l 1,21,-1
 128 256 l 1,22,-1
 192 256 l 1,23,-1
 256 256 l 1,24,-1
 320 256 l 1,25,-1
 320 320 l 1,26,-1
 320 384 l 1,27,-1
 320 448 l 1,28,-1
 384 448 l 1,29,-1
 448 448 l 1,30,-1
 448 384 l 1,31,-1
 448 320 l 1,32,-1
 448 256 l 1,33,-1
 448 192 l 1,34,-1
 448 128 l 1,35,-1
 448 64 l 1,36,-1
 448 0 l 1,37,-1
 384 0 l 1,0,-1
EndSplineSet
Validated: 1
EndChar

StartChar: i
Encoding: 105 105 76
Width: 192
GlyphClass: 2
InSpiro: 1
Flags: W
LayerCount: 2
Fore
SplineSet
0 428 m 1,0,-1
 0 548 l 1,1,-1
 123 548 l 1,2,-1
 123 428 l 1,3,-1
 0 428 l 1,0,-1
  Spiro
    0 428 v
    0 548 v
    123 548 v
    123 428 v
    0 0 z
  EndSpiro
64 0 m 1,4,-1
 0 0 l 1,5,-1
 0 28 l 1,6,-1
 0 92 l 1,7,-1
 0 156 l 1,8,-1
 0 220 l 1,9,-1
 0 246 l 1,10,-1
 0 310 l 1,11,-1
 0 374 l 1,12,-1
 64 374 l 1,13,-1
 125 374 l 1,14,-1
 125 310 l 1,15,-1
 125 246 l 1,16,-1
 125 220 l 1,17,-1
 125 156 l 1,18,-1
 125 92 l 1,19,-1
 125 28 l 1,20,-1
 125 0 l 1,21,-1
 64 0 l 1,4,-1
  Spiro
    64 0 v
    0 0 v
    0 28 v
    0 92 v
    0 156 v
    0 220 v
    0 246 v
    0 310 v
    0 374 v
    64 374 v
    125 374 v
    125 310 v
    125 246 v
    125 220 v
    125 156 v
    125 92 v
    125 28 v
    125 0 v
    0 0 z
  EndSpiro
EndSplineSet
Validated: 1
EndChar

StartChar: j
Encoding: 106 106 77
Width: 512
GlyphClass: 2
Flags: W
LayerCount: 2
Fore
SplineSet
320 0 m 1,0,-1
 256 0 l 1,1,-1
 192 0 l 1,2,-1
 128 0 l 1,3,-1
 64 0 l 1,4,-1
 64 64 l 1,5,-1
 0 64 l 1,6,-1
 0 128 l 1,7,-1
 0 192 l 1,8,-1
 64 192 l 1,9,-1
 128 192 l 1,10,-1
 128 128 l 1,11,-1
 192 128 l 1,12,-1
 256 128 l 1,13,-1
 320 128 l 1,14,-1
 320 192 l 1,15,-1
 320 256 l 1,16,-1
 320 320 l 1,17,-1
 256 320 l 1,18,-1
 192 320 l 1,19,-1
 128 320 l 1,20,-1
 64 320 l 1,21,-1
 0 320 l 1,22,-1
 0 384 l 1,23,-1
 0 448 l 1,24,-1
 64 448 l 1,25,-1
 128 448 l 1,26,-1
 192 448 l 1,27,-1
 256 448 l 1,28,-1
 320 448 l 1,29,-1
 384 448 l 1,30,-1
 448 448 l 1,31,-1
 448 384 l 1,32,-1
 448 320 l 1,33,-1
 448 256 l 1,34,-1
 448 192 l 1,35,-1
 448 128 l 1,36,-1
 448 64 l 1,37,-1
 384 64 l 1,38,-1
 384 0 l 1,39,-1
 320 0 l 1,0,-1
EndSplineSet
Validated: 1
EndChar

StartChar: k
Encoding: 107 107 78
Width: 512
GlyphClass: 2
Flags: W
LayerCount: 2
Fore
SplineSet
384 0 m 1,0,-1
 320 0 l 1,1,-1
 256 0 l 1,2,-1
 256 64 l 1,3,-1
 192 64 l 1,4,-1
 192 128 l 1,5,-1
 128 128 l 1,6,-1
 128 64 l 1,7,-1
 128 0 l 1,8,-1
 64 0 l 1,9,-1
 0 0 l 1,10,-1
 0 64 l 1,11,-1
 0 128 l 1,12,-1
 0 192 l 1,13,-1
 0 256 l 1,14,-1
 0 320 l 1,15,-1
 0 384 l 1,16,-1
 0 448 l 1,17,-1
 64 448 l 1,18,-1
 128 448 l 1,19,-1
 128 384 l 1,20,-1
 128 320 l 1,21,-1
 192 320 l 1,22,-1
 192 384 l 1,23,-1
 256 384 l 1,24,-1
 256 448 l 1,25,-1
 320 448 l 1,26,-1
 384 448 l 1,27,-1
 448 448 l 1,28,-1
 448 384 l 1,29,-1
 384 384 l 1,30,-1
 384 320 l 1,31,-1
 320 320 l 1,32,-1
 320 256 l 1,33,-1
 256 256 l 1,34,-1
 256 192 l 1,35,-1
 320 192 l 1,36,-1
 320 128 l 1,37,-1
 384 128 l 1,38,-1
 384 64 l 1,39,-1
 448 64 l 1,40,-1
 448 0 l 1,41,-1
 384 0 l 1,0,-1
EndSplineSet
Validated: 1
EndChar

StartChar: l
Encoding: 108 108 79
Width: 512
GlyphClass: 2
Flags: W
LayerCount: 2
Fore
SplineSet
384 0 m 1,0,-1
 320 0 l 1,1,-1
 256 0 l 1,2,-1
 192 0 l 1,3,-1
 128 0 l 1,4,-1
 64 0 l 1,5,-1
 0 0 l 1,6,-1
 0 64 l 1,7,-1
 0 128 l 1,8,-1
 0 192 l 1,9,-1
 0 256 l 1,10,-1
 0 320 l 1,11,-1
 0 384 l 1,12,-1
 0 448 l 1,13,-1
 64 448 l 1,14,-1
 128 448 l 1,15,-1
 128 384 l 1,16,-1
 128 320 l 1,17,-1
 128 256 l 1,18,-1
 128 192 l 1,19,-1
 128 128 l 1,20,-1
 192 128 l 1,21,-1
 256 128 l 1,22,-1
 320 128 l 1,23,-1
 384 128 l 1,24,-1
 448 128 l 1,25,-1
 448 64 l 1,26,-1
 448 0 l 1,27,-1
 384 0 l 1,0,-1
EndSplineSet
Validated: 1
EndChar

StartChar: m
Encoding: 109 109 80
Width: 512
GlyphClass: 2
Flags: W
LayerCount: 2
Fore
SplineSet
192 192 m 1,0,-1
 192 256 l 1,1,-1
 128 256 l 1,2,-1
 128 192 l 1,3,-1
 128 128 l 1,4,-1
 128 64 l 1,5,-1
 128 0 l 1,6,-1
 64 0 l 1,7,-1
 0 0 l 1,8,-1
 0 64 l 1,9,-1
 0 128 l 1,10,-1
 0 192 l 1,11,-1
 0 256 l 1,12,-1
 0 320 l 1,13,-1
 0 384 l 1,14,-1
 0 448 l 1,15,-1
 64 448 l 1,16,-1
 128 448 l 1,17,-1
 128 384 l 1,18,-1
 192 384 l 1,19,-1
 192 320 l 1,20,-1
 256 320 l 1,21,-1
 256 384 l 1,22,-1
 320 384 l 1,23,-1
 320 448 l 1,24,-1
 384 448 l 1,25,-1
 448 448 l 1,26,-1
 448 384 l 1,27,-1
 448 320 l 1,28,-1
 448 256 l 1,29,-1
 448 192 l 1,30,-1
 448 128 l 1,31,-1
 448 64 l 1,32,-1
 448 0 l 1,33,-1
 384 0 l 1,34,-1
 320 0 l 1,35,-1
 320 64 l 1,36,-1
 320 128 l 1,37,-1
 320 192 l 1,38,-1
 320 256 l 1,39,-1
 256 256 l 1,40,-1
 256 192 l 1,41,-1
 192 192 l 1,0,-1
EndSplineSet
Validated: 1
EndChar

StartChar: n
Encoding: 110 110 81
Width: 512
GlyphClass: 2
Flags: W
LayerCount: 2
Fore
SplineSet
384 0 m 1,0,-1
 320 0 l 1,1,-1
 320 64 l 1,2,-1
 320 128 l 1,3,-1
 256 128 l 1,4,-1
 256 192 l 1,5,-1
 192 192 l 1,6,-1
 192 256 l 1,7,-1
 128 256 l 1,8,-1
 128 192 l 1,9,-1
 128 128 l 1,10,-1
 128 64 l 1,11,-1
 128 0 l 1,12,-1
 64 0 l 1,13,-1
 0 0 l 1,14,-1
 0 64 l 1,15,-1
 0 128 l 1,16,-1
 0 192 l 1,17,-1
 0 256 l 1,18,-1
 0 320 l 1,19,-1
 0 384 l 1,20,-1
 0 448 l 1,21,-1
 64 448 l 1,22,-1
 128 448 l 1,23,-1
 128 384 l 1,24,-1
 192 384 l 1,25,-1
 192 320 l 1,26,-1
 256 320 l 1,27,-1
 256 256 l 1,28,-1
 320 256 l 1,29,-1
 320 320 l 1,30,-1
 320 384 l 1,31,-1
 320 448 l 1,32,-1
 384 448 l 1,33,-1
 448 448 l 1,34,-1
 448 384 l 1,35,-1
 448 320 l 1,36,-1
 448 256 l 1,37,-1
 448 192 l 1,38,-1
 448 128 l 1,39,-1
 448 64 l 1,40,-1
 448 0 l 1,41,-1
 384 0 l 1,0,-1
EndSplineSet
Validated: 1
EndChar

StartChar: o
Encoding: 111 111 82
Width: 512
GlyphClass: 2
Flags: W
LayerCount: 2
Fore
SplineSet
320 0 m 1,0,-1
 256 0 l 1,1,-1
 192 0 l 1,2,-1
 128 0 l 1,3,-1
 64 0 l 1,4,-1
 64 64 l 1,5,-1
 0 64 l 1,6,-1
 0 128 l 1,7,-1
 0 192 l 1,8,-1
 0 256 l 1,9,-1
 0 320 l 1,10,-1
 0 384 l 1,11,-1
 64 384 l 1,12,-1
 64 448 l 1,13,-1
 128 448 l 1,14,-1
 192 448 l 1,15,-1
 256 448 l 1,16,-1
 320 448 l 1,17,-1
 384 448 l 1,18,-1
 384 384 l 1,19,-1
 448 384 l 1,20,-1
 448 320 l 1,21,-1
 448 256 l 1,22,-1
 448 192 l 1,23,-1
 448 128 l 1,24,-1
 448 64 l 1,25,-1
 384 64 l 1,26,-1
 384 0 l 1,27,-1
 320 0 l 1,0,-1
256 128 m 1,28,-1
 320 128 l 1,29,-1
 320 192 l 1,30,-1
 320 256 l 1,31,-1
 320 320 l 1,32,-1
 256 320 l 1,33,-1
 192 320 l 1,34,-1
 128 320 l 1,35,-1
 128 256 l 1,36,-1
 128 192 l 1,37,-1
 128 128 l 1,38,-1
 192 128 l 1,39,-1
 256 128 l 1,28,-1
EndSplineSet
Validated: 1
EndChar

StartChar: p
Encoding: 112 112 83
Width: 512
GlyphClass: 2
Flags: W
LayerCount: 2
Fore
SplineSet
64 0 m 1,0,-1
 0 0 l 1,1,-1
 0 64 l 1,2,-1
 0 128 l 1,3,-1
 0 192 l 1,4,-1
 0 256 l 1,5,-1
 0 320 l 1,6,-1
 0 384 l 1,7,-1
 0 448 l 1,8,-1
 64 448 l 1,9,-1
 128 448 l 1,10,-1
 192 448 l 1,11,-1
 256 448 l 1,12,-1
 320 448 l 1,13,-1
 384 448 l 1,14,-1
 384 384 l 1,15,-1
 448 384 l 1,16,-1
 448 320 l 1,17,-1
 448 256 l 1,18,-1
 448 192 l 1,19,-1
 384 192 l 1,20,-1
 384 128 l 1,21,-1
 320 128 l 1,22,-1
 256 128 l 1,23,-1
 192 128 l 1,24,-1
 128 128 l 1,25,-1
 128 64 l 1,26,-1
 128 0 l 1,27,-1
 64 0 l 1,0,-1
256 256 m 1,28,-1
 320 256 l 1,29,-1
 320 320 l 1,30,-1
 256 320 l 1,31,-1
 192 320 l 1,32,-1
 128 320 l 1,33,-1
 128 256 l 1,34,-1
 192 256 l 1,35,-1
 256 256 l 1,28,-1
EndSplineSet
Validated: 1
EndChar

StartChar: q
Encoding: 113 113 84
Width: 512
GlyphClass: 2
Flags: W
LayerCount: 2
Fore
SplineSet
384 0 m 1,0,-1
 320 0 l 1,1,-1
 320 64 l 1,2,-1
 256 64 l 1,3,-1
 256 0 l 1,4,-1
 192 0 l 1,5,-1
 128 0 l 1,6,-1
 64 0 l 1,7,-1
 64 64 l 1,8,-1
 0 64 l 1,9,-1
 0 128 l 1,10,-1
 0 192 l 1,11,-1
 0 256 l 1,12,-1
 0 320 l 1,13,-1
 0 384 l 1,14,-1
 64 384 l 1,15,-1
 64 448 l 1,16,-1
 128 448 l 1,17,-1
 192 448 l 1,18,-1
 256 448 l 1,19,-1
 320 448 l 1,20,-1
 384 448 l 1,21,-1
 384 384 l 1,22,-1
 448 384 l 1,23,-1
 448 320 l 1,24,-1
 448 256 l 1,25,-1
 448 192 l 1,26,-1
 448 128 l 1,27,-1
 384 128 l 1,28,-1
 384 64 l 1,29,-1
 448 64 l 1,30,-1
 448 0 l 1,31,-1
 384 0 l 1,0,-1
192 128 m 1,32,-1
 256 128 l 1,33,-1
 256 192 l 1,34,-1
 320 192 l 1,35,-1
 320 256 l 1,36,-1
 320 320 l 1,37,-1
 256 320 l 1,38,-1
 192 320 l 1,39,-1
 128 320 l 1,40,-1
 128 256 l 1,41,-1
 128 192 l 1,42,-1
 128 128 l 1,43,-1
 192 128 l 1,32,-1
EndSplineSet
Validated: 1
EndChar

StartChar: r
Encoding: 114 114 85
Width: 512
GlyphClass: 2
Flags: W
LayerCount: 2
Fore
SplineSet
384 0 m 1,0,-1
 320 0 l 1,1,-1
 320 64 l 1,2,-1
 320 128 l 1,3,-1
 256 128 l 1,4,-1
 192 128 l 1,5,-1
 128 128 l 1,6,-1
 128 64 l 1,7,-1
 128 0 l 1,8,-1
 64 0 l 1,9,-1
 0 0 l 1,10,-1
 0 64 l 1,11,-1
 0 128 l 1,12,-1
 0 192 l 1,13,-1
 0 256 l 1,14,-1
 0 320 l 1,15,-1
 0 384 l 1,16,-1
 0 448 l 1,17,-1
 64 448 l 1,18,-1
 128 448 l 1,19,-1
 192 448 l 1,20,-1
 256 448 l 1,21,-1
 320 448 l 1,22,-1
 384 448 l 1,23,-1
 384 384 l 1,24,-1
 448 384 l 1,25,-1
 448 320 l 1,26,-1
 448 256 l 1,27,-1
 448 192 l 1,28,-1
 384 192 l 1,29,-1
 384 128 l 1,30,-1
 448 128 l 1,31,-1
 448 64 l 1,32,-1
 448 0 l 1,33,-1
 384 0 l 1,0,-1
256 256 m 1,34,-1
 320 256 l 1,35,-1
 320 320 l 1,36,-1
 256 320 l 1,37,-1
 192 320 l 1,38,-1
 128 320 l 1,39,-1
 128 256 l 1,40,-1
 192 256 l 1,41,-1
 256 256 l 1,34,-1
EndSplineSet
Validated: 1
EndChar

StartChar: s
Encoding: 115 115 86
Width: 512
GlyphClass: 2
Flags: W
LayerCount: 2
Fore
SplineSet
320 0 m 1,0,-1
 256 0 l 1,1,-1
 192 0 l 1,2,-1
 128 0 l 1,3,-1
 64 0 l 1,4,-1
 0 0 l 1,5,-1
 0 64 l 1,6,-1
 0 128 l 1,7,-1
 64 128 l 1,8,-1
 128 128 l 1,9,-1
 192 128 l 1,10,-1
 256 128 l 1,11,-1
 320 128 l 1,12,-1
 320 192 l 1,13,-1
 256 192 l 1,14,-1
 192 192 l 1,15,-1
 128 192 l 1,16,-1
 64 192 l 1,17,-1
 0 192 l 1,18,-1
 0 256 l 1,19,-1
 0 320 l 1,20,-1
 0 384 l 1,21,-1
 64 384 l 1,22,-1
 64 448 l 1,23,-1
 128 448 l 1,24,-1
 192 448 l 1,25,-1
 256 448 l 1,26,-1
 320 448 l 1,27,-1
 384 448 l 1,28,-1
 448 448 l 1,29,-1
 448 384 l 1,30,-1
 448 320 l 1,31,-1
 384 320 l 1,32,-1
 320 320 l 1,33,-1
 256 320 l 1,34,-1
 192 320 l 1,35,-1
 128 320 l 1,36,-1
 128 256 l 1,37,-1
 192 256 l 1,38,-1
 256 256 l 1,39,-1
 320 256 l 1,40,-1
 384 256 l 1,41,-1
 448 256 l 1,42,-1
 448 192 l 1,43,-1
 448 128 l 1,44,-1
 448 64 l 1,45,-1
 384 64 l 1,46,-1
 384 0 l 1,47,-1
 320 0 l 1,0,-1
EndSplineSet
Validated: 1
EndChar

StartChar: t
Encoding: 116 116 87
Width: 448
GlyphClass: 2
Flags: W
LayerCount: 2
Fore
SplineSet
192 0 m 1,0,-1
 128 0 l 1,1,-1
 128 64 l 1,2,-1
 128 128 l 1,3,-1
 128 192 l 1,4,-1
 128 256 l 1,5,-1
 128 320 l 1,6,-1
 64 320 l 1,7,-1
 0 320 l 1,8,-1
 0 384 l 1,9,-1
 0 448 l 1,10,-1
 64 448 l 1,11,-1
 128 448 l 1,12,-1
 192 448 l 1,13,-1
 256 448 l 1,14,-1
 320 448 l 1,15,-1
 384 448 l 1,16,-1
 384 384 l 1,17,-1
 384 320 l 1,18,-1
 320 320 l 1,19,-1
 256 320 l 1,20,-1
 256 256 l 1,21,-1
 256 192 l 1,22,-1
 256 128 l 1,23,-1
 256 64 l 1,24,-1
 256 0 l 1,25,-1
 192 0 l 1,0,-1
EndSplineSet
Validated: 1
EndChar

StartChar: u
Encoding: 117 117 88
Width: 512
GlyphClass: 2
Flags: W
LayerCount: 2
Fore
SplineSet
320 0 m 1,0,-1
 256 0 l 1,1,-1
 192 0 l 1,2,-1
 128 0 l 1,3,-1
 64 0 l 1,4,-1
 64 64 l 1,5,-1
 0 64 l 1,6,-1
 0 128 l 1,7,-1
 0 192 l 1,8,-1
 0 256 l 1,9,-1
 0 320 l 1,10,-1
 0 384 l 1,11,-1
 0 448 l 1,12,-1
 64 448 l 1,13,-1
 128 448 l 1,14,-1
 128 384 l 1,15,-1
 128 320 l 1,16,-1
 128 256 l 1,17,-1
 128 192 l 1,18,-1
 128 128 l 1,19,-1
 192 128 l 1,20,-1
 256 128 l 1,21,-1
 320 128 l 1,22,-1
 320 192 l 1,23,-1
 320 256 l 1,24,-1
 320 320 l 1,25,-1
 320 384 l 1,26,-1
 320 448 l 1,27,-1
 384 448 l 1,28,-1
 448 448 l 1,29,-1
 448 384 l 1,30,-1
 448 320 l 1,31,-1
 448 256 l 1,32,-1
 448 192 l 1,33,-1
 448 128 l 1,34,-1
 448 64 l 1,35,-1
 384 64 l 1,36,-1
 384 0 l 1,37,-1
 320 0 l 1,0,-1
EndSplineSet
Validated: 1
EndChar

StartChar: v
Encoding: 118 118 89
Width: 512
GlyphClass: 2
Flags: W
LayerCount: 2
Fore
SplineSet
192 0 m 1,0,-1
 192 64 l 1,1,-1
 128 64 l 1,2,-1
 128 128 l 1,3,-1
 128 192 l 1,4,-1
 64 192 l 1,5,-1
 64 256 l 1,6,-1
 64 320 l 1,7,-1
 0 320 l 1,8,-1
 0 384 l 1,9,-1
 0 448 l 1,10,-1
 64 448 l 1,11,-1
 128 448 l 1,12,-1
 128 384 l 1,13,-1
 128 320 l 1,14,-1
 192 320 l 1,15,-1
 192 256 l 1,16,-1
 192 192 l 1,17,-1
 256 192 l 1,18,-1
 256 256 l 1,19,-1
 256 320 l 1,20,-1
 320 320 l 1,21,-1
 320 384 l 1,22,-1
 320 448 l 1,23,-1
 384 448 l 1,24,-1
 448 448 l 1,25,-1
 448 384 l 1,26,-1
 448 320 l 1,27,-1
 384 320 l 1,28,-1
 384 256 l 1,29,-1
 384 192 l 1,30,-1
 320 192 l 1,31,-1
 320 128 l 1,32,-1
 320 64 l 1,33,-1
 256 64 l 1,34,-1
 256 0 l 1,35,-1
 192 0 l 1,0,-1
EndSplineSet
Validated: 1
EndChar

StartChar: w
Encoding: 119 119 90
Width: 512
GlyphClass: 2
Flags: W
LayerCount: 2
Fore
SplineSet
384 0 m 1,0,-1
 320 0 l 1,1,-1
 320 64 l 1,2,-1
 256 64 l 1,3,-1
 256 128 l 1,4,-1
 192 128 l 1,5,-1
 192 64 l 1,6,-1
 128 64 l 1,7,-1
 128 0 l 1,8,-1
 64 0 l 1,9,-1
 0 0 l 1,10,-1
 0 64 l 1,11,-1
 0 128 l 1,12,-1
 0 192 l 1,13,-1
 0 256 l 1,14,-1
 0 320 l 1,15,-1
 0 384 l 1,16,-1
 0 448 l 1,17,-1
 64 448 l 1,18,-1
 128 448 l 1,19,-1
 128 384 l 1,20,-1
 128 320 l 1,21,-1
 128 256 l 1,22,-1
 128 192 l 1,23,-1
 192 192 l 1,24,-1
 192 256 l 1,25,-1
 256 256 l 1,26,-1
 256 192 l 1,27,-1
 320 192 l 1,28,-1
 320 256 l 1,29,-1
 320 320 l 1,30,-1
 320 384 l 1,31,-1
 320 448 l 1,32,-1
 384 448 l 1,33,-1
 448 448 l 1,34,-1
 448 384 l 1,35,-1
 448 320 l 1,36,-1
 448 256 l 1,37,-1
 448 192 l 1,38,-1
 448 128 l 1,39,-1
 448 64 l 1,40,-1
 448 0 l 1,41,-1
 384 0 l 1,0,-1
EndSplineSet
Validated: 1
EndChar

StartChar: x
Encoding: 120 120 91
Width: 512
GlyphClass: 2
Flags: W
LayerCount: 2
Fore
SplineSet
384 0 m 1,0,-1
 320 0 l 1,1,-1
 320 64 l 1,2,-1
 256 64 l 1,3,-1
 256 128 l 1,4,-1
 192 128 l 1,5,-1
 192 64 l 1,6,-1
 128 64 l 1,7,-1
 128 0 l 1,8,-1
 64 0 l 1,9,-1
 0 0 l 1,10,-1
 0 64 l 1,11,-1
 0 128 l 1,12,-1
 64 128 l 1,13,-1
 64 192 l 1,14,-1
 128 192 l 1,15,-1
 128 256 l 1,16,-1
 64 256 l 1,17,-1
 64 320 l 1,18,-1
 0 320 l 1,19,-1
 0 384 l 1,20,-1
 0 448 l 1,21,-1
 64 448 l 1,22,-1
 128 448 l 1,23,-1
 128 384 l 1,24,-1
 192 384 l 1,25,-1
 192 320 l 1,26,-1
 256 320 l 1,27,-1
 256 384 l 1,28,-1
 320 384 l 1,29,-1
 320 448 l 1,30,-1
 384 448 l 1,31,-1
 448 448 l 1,32,-1
 448 384 l 1,33,-1
 448 320 l 1,34,-1
 384 320 l 1,35,-1
 384 256 l 1,36,-1
 320 256 l 1,37,-1
 320 192 l 1,38,-1
 384 192 l 1,39,-1
 384 128 l 1,40,-1
 448 128 l 1,41,-1
 448 64 l 1,42,-1
 448 0 l 1,43,-1
 384 0 l 1,0,-1
EndSplineSet
Validated: 1
EndChar

StartChar: y
Encoding: 121 121 92
Width: 448
GlyphClass: 2
Flags: W
LayerCount: 2
Fore
SplineSet
192 0 m 1,0,-1
 128 0 l 1,1,-1
 128 64 l 1,2,-1
 128 128 l 1,3,-1
 128 192 l 1,4,-1
 64 192 l 1,5,-1
 64 256 l 1,6,-1
 0 256 l 1,7,-1
 0 320 l 1,8,-1
 0 384 l 1,9,-1
 0 448 l 1,10,-1
 64 448 l 1,11,-1
 128 448 l 1,12,-1
 128 384 l 1,13,-1
 128 320 l 1,14,-1
 192 320 l 1,15,-1
 256 320 l 1,16,-1
 256 384 l 1,17,-1
 256 448 l 1,18,-1
 320 448 l 1,19,-1
 384 448 l 1,20,-1
 384 384 l 1,21,-1
 384 320 l 1,22,-1
 384 256 l 1,23,-1
 320 256 l 1,24,-1
 320 192 l 1,25,-1
 256 192 l 1,26,-1
 256 128 l 1,27,-1
 256 64 l 1,28,-1
 256 0 l 1,29,-1
 192 0 l 1,0,-1
EndSplineSet
Validated: 1
EndChar

StartChar: z
Encoding: 122 122 93
Width: 512
GlyphClass: 2
Flags: W
LayerCount: 2
Fore
SplineSet
384 0 m 1,0,-1
 320 0 l 1,1,-1
 256 0 l 1,2,-1
 192 0 l 1,3,-1
 128 0 l 1,4,-1
 64 0 l 1,5,-1
 0 0 l 1,6,-1
 0 64 l 1,7,-1
 0 128 l 1,8,-1
 64 128 l 1,9,-1
 64 192 l 1,10,-1
 128 192 l 1,11,-1
 128 256 l 1,12,-1
 192 256 l 1,13,-1
 256 256 l 1,14,-1
 256 320 l 1,15,-1
 192 320 l 1,16,-1
 128 320 l 1,17,-1
 64 320 l 1,18,-1
 0 320 l 1,19,-1
 0 384 l 1,20,-1
 0 448 l 1,21,-1
 64 448 l 1,22,-1
 128 448 l 1,23,-1
 192 448 l 1,24,-1
 256 448 l 1,25,-1
 320 448 l 1,26,-1
 384 448 l 1,27,-1
 448 448 l 1,28,-1
 448 384 l 1,29,-1
 448 320 l 1,30,-1
 448 256 l 1,31,-1
 384 256 l 1,32,-1
 320 256 l 1,33,-1
 320 192 l 1,34,-1
 256 192 l 1,35,-1
 256 128 l 1,36,-1
 320 128 l 1,37,-1
 384 128 l 1,38,-1
 448 128 l 1,39,-1
 448 64 l 1,40,-1
 448 0 l 1,41,-1
 384 0 l 1,0,-1
EndSplineSet
Validated: 1
EndChar

StartChar: braceleft
Encoding: 123 123 94
Width: 384
GlyphClass: 2
Flags: W
LayerCount: 2
Fore
SplineSet
256 64 m 1,0,-1
 320 64 l 1,1,-1
 320 0 l 1,2,-1
 256 0 l 1,3,-1
 192 0 l 1,4,-1
 128 0 l 1,5,-1
 128 64 l 1,6,-1
 64 64 l 1,7,-1
 64 128 l 1,8,-1
 64 192 l 1,9,-1
 0 192 l 1,10,-1
 0 256 l 1,11,-1
 64 256 l 1,12,-1
 64 320 l 1,13,-1
 64 384 l 1,14,-1
 128 384 l 1,15,-1
 128 448 l 1,16,-1
 192 448 l 1,17,-1
 256 448 l 1,18,-1
 320 448 l 1,19,-1
 320 384 l 1,20,-1
 256 384 l 1,21,-1
 192 384 l 1,22,-1
 192 320 l 1,23,-1
 192 256 l 1,24,-1
 192 192 l 1,25,-1
 192 128 l 1,26,-1
 192 64 l 1,27,-1
 256 64 l 1,0,-1
EndSplineSet
Validated: 1
EndChar

StartChar: bar
Encoding: 124 124 95
Width: 128
GlyphClass: 2
Flags: W
LayerCount: 2
Fore
SplineSet
0 0 m 1,0,-1
 0 64 l 1,1,-1
 0 128 l 1,2,-1
 0 192 l 1,3,-1
 0 256 l 1,4,-1
 0 320 l 1,5,-1
 0 384 l 1,6,-1
 0 448 l 1,7,-1
 64 448 l 1,8,-1
 64 384 l 1,9,-1
 64 320 l 1,10,-1
 64 256 l 1,11,-1
 64 192 l 1,12,-1
 64 128 l 1,13,-1
 64 64 l 1,14,-1
 64 0 l 1,15,-1
 0 0 l 1,0,-1
EndSplineSet
Validated: 1
EndChar

StartChar: braceright
Encoding: 125 125 96
Width: 384
GlyphClass: 2
Flags: W
LayerCount: 2
Fore
SplineSet
128 0 m 1,0,-1
 64 0 l 1,1,-1
 0 0 l 1,2,-1
 0 64 l 1,3,-1
 64 64 l 1,4,-1
 128 64 l 1,5,-1
 128 128 l 1,6,-1
 128 192 l 1,7,-1
 128 256 l 1,8,-1
 128 320 l 1,9,-1
 128 384 l 1,10,-1
 64 384 l 1,11,-1
 0 384 l 1,12,-1
 0 448 l 1,13,-1
 64 448 l 1,14,-1
 128 448 l 1,15,-1
 192 448 l 1,16,-1
 192 384 l 1,17,-1
 256 384 l 1,18,-1
 256 320 l 1,19,-1
 256 256 l 1,20,-1
 320 256 l 1,21,-1
 320 192 l 1,22,-1
 256 192 l 1,23,-1
 256 128 l 1,24,-1
 256 64 l 1,25,-1
 192 64 l 1,26,-1
 192 0 l 1,27,-1
 128 0 l 1,0,-1
EndSplineSet
Validated: 1
EndChar

StartChar: asciitilde
Encoding: 126 126 97
Width: 448
GlyphClass: 2
Flags: W
LayerCount: 2
Fore
SplineSet
192 192 m 1,0,-1
 256 192 l 1,1,-1
 256 128 l 1,2,-1
 192 128 l 1,3,-1
 128 128 l 1,4,-1
 128 192 l 1,5,-1
 192 192 l 1,0,-1
320 256 m 1,6,-1
 384 256 l 1,7,-1
 384 192 l 1,8,-1
 320 192 l 1,9,-1
 256 192 l 1,10,-1
 256 256 l 1,11,-1
 320 256 l 1,6,-1
128 192 m 1,12,-1
 64 192 l 1,13,-1
 0 192 l 1,14,-1
 0 256 l 1,15,-1
 64 256 l 1,16,-1
 128 256 l 1,17,-1
 128 192 l 1,12,-1
EndSplineSet
Validated: 5
EndChar

StartChar: exclamdown
Encoding: 161 161 99
Width: 192
GlyphClass: 2
Flags: W
LayerCount: 2
Fore
SplineSet
64 -256 m 1,0,-1
 0 -256 l 1,1,-1
 0 -192 l 1,2,-1
 0 -128 l 1,3,-1
 0 -64 l 1,4,-1
 0 0 l 1,5,-1
 64 0 l 1,6,-1
 128 0 l 1,7,-1
 128 -64 l 1,8,-1
 128 -128 l 1,9,-1
 128 -192 l 1,10,-1
 128 -256 l 1,11,-1
 64 -256 l 1,0,-1
64 64 m 1,12,-1
 0 64 l 1,13,-1
 0 128 l 1,14,-1
 0 192 l 1,15,-1
 64 192 l 1,16,-1
 128 192 l 1,17,-1
 128 128 l 1,18,-1
 128 64 l 1,19,-1
 64 64 l 1,12,-1
EndSplineSet
Validated: 1
EndChar

StartChar: cent
Encoding: 162 162 100
Width: 384
GlyphClass: 2
Flags: W
LayerCount: 2
Fore
SplineSet
128 0 m 1,0,-1
 128 64 l 1,1,-1
 64 64 l 1,2,-1
 64 128 l 1,3,-1
 128 128 l 1,4,-1
 192 128 l 1,5,-1
 256 128 l 1,6,-1
 320 128 l 1,7,-1
 320 64 l 1,8,-1
 256 64 l 1,9,-1
 192 64 l 1,10,-1
 192 0 l 1,11,-1
 128 0 l 1,0,-1
64 128 m 1,12,-1
 0 128 l 1,13,-1
 0 192 l 1,14,-1
 0 256 l 1,15,-1
 0 320 l 1,16,-1
 64 320 l 1,17,-1
 64 256 l 1,18,-1
 64 192 l 1,19,-1
 64 128 l 1,12,-1
256 384 m 1,20,-1
 320 384 l 1,21,-1
 320 320 l 1,22,-1
 256 320 l 1,23,-1
 192 320 l 1,24,-1
 128 320 l 1,25,-1
 64 320 l 1,26,-1
 64 384 l 1,27,-1
 128 384 l 1,28,-1
 128 448 l 1,29,-1
 192 448 l 1,30,-1
 192 384 l 1,31,-1
 256 384 l 1,20,-1
EndSplineSet
Validated: 5
EndChar

StartChar: sterling
Encoding: 163 163 101
Width: 448
GlyphClass: 2
Flags: W
LayerCount: 2
Fore
SplineSet
256 64 m 1,0,-1
 320 64 l 1,1,-1
 320 0 l 1,2,-1
 256 0 l 1,3,-1
 192 0 l 1,4,-1
 128 0 l 1,5,-1
 64 0 l 1,6,-1
 0 0 l 1,7,-1
 0 64 l 1,8,-1
 64 64 l 1,9,-1
 64 128 l 1,10,-1
 64 192 l 1,11,-1
 0 192 l 1,12,-1
 0 256 l 1,13,-1
 64 256 l 1,14,-1
 64 320 l 1,15,-1
 64 384 l 1,16,-1
 128 384 l 1,17,-1
 128 320 l 1,18,-1
 128 256 l 1,19,-1
 192 256 l 1,20,-1
 256 256 l 1,21,-1
 256 192 l 1,22,-1
 192 192 l 1,23,-1
 128 192 l 1,24,-1
 128 128 l 1,25,-1
 128 64 l 1,26,-1
 192 64 l 1,27,-1
 256 64 l 1,0,-1
320 64 m 1,28,-1
 320 128 l 1,29,-1
 384 128 l 1,30,-1
 384 64 l 1,31,-1
 320 64 l 1,28,-1
256 448 m 1,32,-1
 320 448 l 1,33,-1
 320 384 l 1,34,-1
 256 384 l 1,35,-1
 192 384 l 1,36,-1
 128 384 l 1,37,-1
 128 448 l 1,38,-1
 192 448 l 1,39,-1
 256 448 l 1,32,-1
EndSplineSet
Validated: 5
EndChar

StartChar: currency
Encoding: 164 164 102
Width: 448
GlyphClass: 2
Flags: W
LayerCount: 2
Fore
SplineSet
320 0 m 1,0,-1
 320 64 l 1,1,-1
 384 64 l 1,2,-1
 384 0 l 1,3,-1
 320 0 l 1,0,-1
0 0 m 1,4,-1
 0 64 l 1,5,-1
 64 64 l 1,6,-1
 64 0 l 1,7,-1
 0 0 l 1,4,-1
320 64 m 1,8,-1
 256 64 l 1,9,-1
 192 64 l 1,10,-1
 128 64 l 1,11,-1
 64 64 l 1,12,-1
 64 128 l 1,13,-1
 64 192 l 1,14,-1
 64 256 l 1,15,-1
 64 320 l 1,16,-1
 128 320 l 1,17,-1
 192 320 l 1,18,-1
 256 320 l 1,19,-1
 320 320 l 1,20,-1
 320 256 l 1,21,-1
 320 192 l 1,22,-1
 320 128 l 1,23,-1
 320 64 l 1,8,-1
192 128 m 1,24,-1
 256 128 l 1,25,-1
 256 192 l 1,26,-1
 256 256 l 1,27,-1
 192 256 l 1,28,-1
 128 256 l 1,29,-1
 128 192 l 1,30,-1
 128 128 l 1,31,-1
 192 128 l 1,24,-1
320 320 m 1,32,-1
 320 384 l 1,33,-1
 384 384 l 1,34,-1
 384 320 l 1,35,-1
 320 320 l 1,32,-1
64 320 m 1,36,-1
 0 320 l 1,37,-1
 0 384 l 1,38,-1
 64 384 l 1,39,-1
 64 320 l 1,36,-1
EndSplineSet
Validated: 5
EndChar

StartChar: yen
Encoding: 165 165 103
Width: 384
GlyphClass: 2
Flags: W
LayerCount: 2
Fore
SplineSet
128 0 m 1,0,-1
 128 64 l 1,1,-1
 64 64 l 1,2,-1
 64 128 l 1,3,-1
 128 128 l 1,4,-1
 128 192 l 1,5,-1
 64 192 l 1,6,-1
 64 256 l 1,7,-1
 128 256 l 1,8,-1
 128 320 l 1,9,-1
 192 320 l 1,10,-1
 192 256 l 1,11,-1
 256 256 l 1,12,-1
 256 192 l 1,13,-1
 192 192 l 1,14,-1
 192 128 l 1,15,-1
 256 128 l 1,16,-1
 256 64 l 1,17,-1
 192 64 l 1,18,-1
 192 0 l 1,19,-1
 128 0 l 1,0,-1
192 320 m 1,20,-1
 192 384 l 1,21,-1
 256 384 l 1,22,-1
 256 320 l 1,23,-1
 192 320 l 1,20,-1
128 320 m 1,24,-1
 64 320 l 1,25,-1
 64 384 l 1,26,-1
 128 384 l 1,27,-1
 128 320 l 1,24,-1
256 384 m 1,28,-1
 256 448 l 1,29,-1
 320 448 l 1,30,-1
 320 384 l 1,31,-1
 256 384 l 1,28,-1
64 384 m 1,32,-1
 0 384 l 1,33,-1
 0 448 l 1,34,-1
 64 448 l 1,35,-1
 64 384 l 1,32,-1
EndSplineSet
Validated: 5
EndChar

StartChar: brokenbar
Encoding: 166 166 104
Width: 128
GlyphClass: 2
Flags: W
LayerCount: 2
Fore
SplineSet
0 0 m 1,0,-1
 0 64 l 1,1,-1
 0 128 l 1,2,-1
 0 192 l 1,3,-1
 64 192 l 1,4,-1
 64 128 l 1,5,-1
 64 64 l 1,6,-1
 64 0 l 1,7,-1
 0 0 l 1,0,-1
0 256 m 1,8,-1
 0 320 l 1,9,-1
 0 384 l 1,10,-1
 0 448 l 1,11,-1
 64 448 l 1,12,-1
 64 384 l 1,13,-1
 64 320 l 1,14,-1
 64 256 l 1,15,-1
 0 256 l 1,8,-1
EndSplineSet
Validated: 1
EndChar

StartChar: dieresis
Encoding: 168 168 105
Width: 384
GlyphClass: 2
Flags: W
LayerCount: 2
Fore
SplineSet
256 320 m 1,0,-1
 192 320 l 1,1,-1
 192 384 l 1,2,-1
 192 448 l 1,3,-1
 256 448 l 1,4,-1
 320 448 l 1,5,-1
 320 384 l 1,6,-1
 320 320 l 1,7,-1
 256 320 l 1,0,-1
64 320 m 1,8,-1
 0 320 l 1,9,-1
 0 384 l 1,10,-1
 0 448 l 1,11,-1
 64 448 l 1,12,-1
 128 448 l 1,13,-1
 128 384 l 1,14,-1
 128 320 l 1,15,-1
 64 320 l 1,8,-1
EndSplineSet
Validated: 1
EndChar

StartChar: copyright
Encoding: 169 169 106
Width: 384
GlyphClass: 2
Flags: W
LayerCount: 2
Fore
SplineSet
256 192 m 1,0,-1
 256 256 l 1,1,-1
 320 256 l 1,2,-1
 320 192 l 1,3,-1
 256 192 l 1,0,-1
64 192 m 1,4,-1
 64 256 l 1,5,-1
 128 256 l 1,6,-1
 128 192 l 1,7,-1
 64 192 l 1,4,-1
256 0 m 1,8,-1
 192 0 l 1,9,-1
 128 0 l 1,10,-1
 64 0 l 1,11,-1
 64 64 l 1,12,-1
 64 128 l 1,13,-1
 128 128 l 1,14,-1
 128 64 l 1,15,-1
 192 64 l 1,16,-1
 256 64 l 1,17,-1
 256 128 l 1,18,-1
 320 128 l 1,19,-1
 320 64 l 1,20,-1
 320 0 l 1,21,-1
 256 0 l 1,8,-1
EndSplineSet
Validated: 1
EndChar

StartChar: Euro
Encoding: 8364 8364 107
Width: 384
GlyphClass: 2
Flags: W
LayerCount: 2
Fore
SplineSet
256 64 m 1,0,-1
 320 64 l 1,1,-1
 320 0 l 1,2,-1
 256 0 l 1,3,-1
 192 0 l 1,4,-1
 128 0 l 1,5,-1
 128 64 l 1,6,-1
 192 64 l 1,7,-1
 256 64 l 1,0,-1
128 64 m 1,8,-1
 64 64 l 1,9,-1
 64 128 l 1,10,-1
 0 128 l 1,11,-1
 0 192 l 1,12,-1
 64 192 l 1,13,-1
 64 256 l 1,14,-1
 0 256 l 1,15,-1
 0 320 l 1,16,-1
 64 320 l 1,17,-1
 64 384 l 1,18,-1
 128 384 l 1,19,-1
 128 320 l 1,20,-1
 192 320 l 1,21,-1
 256 320 l 1,22,-1
 256 256 l 1,23,-1
 192 256 l 1,24,-1
 128 256 l 1,25,-1
 128 192 l 1,26,-1
 192 192 l 1,27,-1
 256 192 l 1,28,-1
 256 128 l 1,29,-1
 192 128 l 1,30,-1
 128 128 l 1,31,-1
 128 64 l 1,8,-1
256 448 m 1,32,-1
 320 448 l 1,33,-1
 320 384 l 1,34,-1
 256 384 l 1,35,-1
 192 384 l 1,36,-1
 128 384 l 1,37,-1
 128 448 l 1,38,-1
 192 448 l 1,39,-1
 256 448 l 1,32,-1
EndSplineSet
Validated: 5
EndChar

